/* XPM */
static char *brick[] = {
/* columns rows colors chars-per-pixel */
"50 50 180 2 ",
"   c #0B0302",
".  c #120703",
"X  c #140A06",
"o  c #130D0B",
"O  c #190E0A",
"+  c #16110E",
"@  c #1D120E",
"#  c #1F1411",
"$  c #1A1817",
"%  c #1E1B19",
"&  c #23130B",
"*  c #2A160D",
"=  c #231612",
"-  c #251914",
";  c #2A1A14",
":  c #251E1B",
">  c #291E1A",
",  c #341F17",
"<  c #26211E",
"1  c #2B221D",
"2  c #382217",
"3  c #34241C",
"4  c #3B251A",
"5  c #3E281E",
"6  c #252221",
"7  c #2B2523",
"8  c #2D2926",
"9  c #2A2728",
"0  c #2E2C2B",
"q  c #322722",
"w  c #382720",
"e  c #322A25",
"r  c #3D2C23",
"t  c #322D2B",
"y  c #3D2F28",
"u  c #3E3025",
"i  c #35312E",
"p  c #3D332C",
"a  c #2F393C",
"s  c #333332",
"d  c #3A3632",
"f  c #353837",
"g  c #3B3936",
"h  c #303739",
"j  c #353B3C",
"k  c #3C3D3C",
"l  c #412A1E",
"z  c #422D24",
"x  c #443025",
"c  c #4A3123",
"v  c #42362C",
"b  c #49362B",
"n  c #45382E",
"m  c #4A3A2E",
"M  c #423630",
"N  c #443B34",
"B  c #4B3D32",
"V  c #423E3B",
"C  c #38403F",
"Z  c #4F4131",
"A  c #43413D",
"S  c #4C423B",
"D  c #534334",
"F  c #52463C",
"G  c #54493B",
"H  c #5D4E3D",
"J  c #373F40",
"K  c #3B3E40",
"L  c #3D4444",
"P  c #444543",
"I  c #4A4743",
"U  c #454846",
"Y  c #4C4945",
"T  c #424748",
"R  c #444949",
"E  c #4C4D4A",
"W  c #504740",
"Q  c #534A42",
"!  c #5A4D41",
"~  c #534F4A",
"^  c #4E514D",
"/  c #5C5144",
"(  c #55524D",
")  c #5A554E",
"_  c #5D594F",
"`  c #4F5351",
"'  c #545552",
"]  c #5A5651",
"[  c #555955",
"{  c #5D5A54",
"}  c #5C5E5A",
"|  c #635444",
" . c #635846",
".. c #615648",
"X. c #655B4C",
"o. c #6B5E4A",
"O. c #615D56",
"+. c #6B5F52",
"@. c #635E59",
"#. c #6E614B",
"$. c #676155",
"%. c #6C6354",
"&. c #66625C",
"*. c #69645D",
"=. c #6C695D",
"-. c #726756",
";. c #726C5D",
":. c #656660",
">. c #6B6760",
",. c #666962",
"<. c #6B6E63",
"1. c #6F6F61",
"2. c #6D6D63",
"3. c #6C6A62",
"4. c #6C6D68",
"5. c #716B61",
"6. c #716B63",
"7. c #706C60",
"8. c #746F63",
"9. c #726C63",
"0. c #716F6A",
"q. c #6F7369",
"w. c #767163",
"e. c #777262",
"r. c #767461",
"t. c #707067",
"y. c #777365",
"u. c #777566",
"i. c #777666",
"p. c #757265",
"a. c #787262",
"s. c #787466",
"d. c #7A7566",
"f. c #7B7767",
"g. c #797464",
"h. c #7F7862",
"j. c #797864",
"k. c #7E7965",
"l. c #7C7966",
"z. c #777369",
"x. c #76736A",
"c. c #77746B",
"v. c #777469",
"b. c #73736A",
"n. c #7B7769",
"m. c #78776A",
"M. c #797569",
"N. c #7C7769",
"B. c #7B766A",
"V. c #777A6E",
"C. c #77796E",
"Z. c #76786D",
"A. c #7A786B",
"S. c #7D796A",
"D. c #7F7D6B",
"F. c #7D7A6A",
"G. c #787770",
"H. c #777B71",
"J. c #7B7D70",
"K. c #7D7D72",
"L. c #857D63",
"P. c #807F6A",
"I. c #817D6C",
"U. c #837F6D",
"Y. c #817D6F",
"T. c #817D6A",
"R. c #7F847F",
"E. c #7F847B",
"W. c #85806D",
"Q. c #88806A",
"!. c #828377",
"~. c #8B8770",
"^. c #8C8770",
"/. c #84847C",
"(. c #92907F",
"). c #8A8C84",
"_. c #898F88",
"`. c #919385",
"'. c #8F9891",
"]. c #A4B0A7",
/* pixels */
"v v v p y M r 4 , 4 2 , 2 B D n p y l b ) Q B B v p p m n v v m b D D D B p n n n p r z m / ! B B m ",
"e.e.a.e.,.&./ H | | H F O.J.S.7.&.( & ;.].R.m.e.h.L.h.e.e.:.] ] &.e.S.m.m.^.I.m.7.&.( & ;.]./.m.h.h.",
"&.@.&.,.:.@.7.m.Z.x.a.I.Z.&.@.@.O.} 9 X.m.{ @.&.,.,.,.@.@.*.O.&.,.&.@.&.=.=.&.@.@.O.@.6 | S.{ *.;.:.",
"&.,.,.&.*.{ { &.@.&.;.=.&.&.&.&.*.&.1 ! m.@.7.S.,.:.&.*.&.&.*.*.;.@.e.m.*.@.&.&.&.*.&.: G m.*.a.&.&.",
",.&.*.*.&.( O.*.@.a.7.&.&.&.&.,.*.E @ / x.=.;.&.&.,.:.*.@.@.*.&.;.;.=.&.&.&.&.&.,.*.E # / x.,.7.&.:.",
"&.*.&.&.] O.*.*.,.,.,.&.&.&.*.*.( j 6 / I.=.&.&.:.:.*.@.O.@.&.=.;.,.&.*.&.&.*.*.*.( j 6 / I.*.&.&.:.",
"&.*.( ] *.*.@.=.e.:.&.:.&.&.7.O.I L 6 M I.*.@.&.&.*.@.O.O.@.*.=.,.:.,.&.,.&.&.7.O.I L 6 B S.*.&.&.&.",
":.O.I @.&.&.&.*.e.&.:.,.@.*.&.) ( L 0 p ,.*.&.&.&.*.*.{ &.*.@.&.:.,.&.:.,.@.*.&.) ( L e M ,.*.&.&.&.",
"7.) { O.O.*.&.&.&.*.*.&.O.] ( @.*.( f p ] &.*.&.*.7.) ) *.*.] &.,.&.&.*.&.O.] ( @.&.^ g p ' *.*.&.*.",
"O.{ &.&.*.*.&.*.*.*.@.O.O.&.&.*.*.] 9 p ' &.&.7.O.( { *.*.&.*.*.&.*.*.@.O.O.&.&.*.*.] e p ( *.*.7.] ",
"*.*.&.:.,.*.,.&.*.*.*.,.*.:.*.*.7.] - S ,.:.7.@.Y U ( &.:.,.*.7.:.*.:.*.,.*.:.*.*.7.@.# S ,.,.*.( ( ",
"} ' E E } k k Y A A ' { } } E ' ] V 1 M I A ( k j j L E ] ( U V k A A ' { } } E ' ] 0 O v A V I U E ",
"e 9 9 : e @   @ # # 1 : 0 i e e - = l 4 @ = O = 9 1 e e 9 = >     = = 1 > e 9 8 0 2 & c & o - > : q ",
"#...Y M l z X.O.X._ ] ) g q * m ;.O.O.=.S.;.7.%.%.Q M M Q S 2 b a.%.*.%.V d M S F Q Q Q ) ) _ X.X.#.",
",.7.,.] 1 %./.:.I.Z.,.,.,.C q =.Z.,.,.,.H.x.x.e.I.m.] ' ,.( ; -.J.7.e.7.&.U ' ,.,.&.] ' ,.,.,.,.h.e.",
"&.&.:.] < ..m.7.7.&.&.&.,.' ] !.m.@.*.&.@.&.e.e.*.&.*.&.&.U ; ;.,.;.*.&.*.( O.*.*.@.O.@.&.&.*.7.=.&.",
",.:.:.Y : | S.,.@.&.&.&.&.*.m./.,.O.{ *.&.;.a.*.@.&.*.@.&.( : %.S.=.@.*.&.] { &.*.*.@.@.*.&.7.a.@.,.",
"&.&.{ ] f p *.*.*.&.&.O.*.*.@.O.@.*.O.&.;.,.@.&.*.&.&.&.O.U : a.Z.&.&.&.&.&.~ @.&.&.*.&.&.&.*.*.&.,.",
"*.&.@.&.f e R ( O.&.@.&.*.O.] &.*.*.*.*.,.&.&.&.&.*.&.7.{ E 6 %.x.:.*.*.*.&.( { @.*.&.*.&.&.&.&.&.&.",
"&.&.*.} e p ^ ( { ( { { { O.&.@.*.*.*.*.&.*.,.,.&.*.&.&.] ' 8 ..,.&.&.*.*.O.] { @.*.&.&.*.*.*.*.&.&.",
"*.*.O.[ 0 M ,.,.@.{ ( ] ( O.*.*.*.&.&.&.&.&.,.,.*.&.:.~ ( ' 8 S *.*.*.*.&.] *.*.&.*.&.*.] ] *.*.&.*.",
"&.{ ( ( 0 M ,.&.*.*.*.&.@.] &.,.*.*.&.*.&.,.,.:.&.&.*.( O.` e F :.7.7.&.&.O.&.&.*.7.] ] ] E &.*.&.@.",
"Y ] &.( : M &.@.&.&.&.*.&.&.7.*.O.&.*.&.&.&.,.O.] *.( { :.' 9 %.,.*.:.*.&.&.&.*.@.&.] &.*.] ] O.&.{ ",
"] O.*.( - M ] &.&.@.&.:.:.7.O.{ &.E ,.@.] *.{ { *.*.( ] :.I - Y :.&.{ ] *.:.*.:.*.*.*.,.*.&.&.@.] ( ",
"k j i 1 ; 2 9 9 f T k d U U k 0 f 0 : % i g 9 k k k j e : o 4 5 e f 0 k k k K k e % 9 $ 6 e > i e e ",
"d v e e v m p p r ; ; ; ; = p B m p q : ; - Q I F v p n u e v D D B m D v p p p r 1 ; ; * B ! B B B ",
"Q.I.,.:.7.*.=.S.=.| H H | ! ;.S.a.*.:.g = %.'././.h.e.a.e.,.@.e.S.e.,.a.h.e.a.e.,.] e 4 B _.`.a.I.W.",
"=.=.&.*.*.] @.:.4.m.e.S.Z.S.e.&.@.@.*.E e W.&.O.%.,.&.&.,.:.@.@.@.@.@.:.,.&.@.&.*.*.k ; %.J.' &.=.=.",
":.&.*.&.&.*.&.&.&.@.;.,.&.&.&.&.&.&.7.Y > ;.&.e.7.&.,.,.&.*.] O.&.&.e.7.&.*.,.,.,.] i ; ! x.*.S.,.&.",
",.:.*.@.@.*.&.&.&.a.7.&.&.&.&.&.&.7.&.d - ;.,.a.*.&.,.:.*.@.O.@.&.e.;.*.:.,.,.:.&.{ k ; G h.;.*.&.&.",
":.*.@.] @.*.&.&.&.,.,.&.&.&.&.&.*.O.U h 9 ;.a.*.&.*.:.@.&.] ] e.e.*.' ] @.,.&.&.{ &.U ; G W.&.&.&.&.",
"*.@.O.O.@.*.*.&.&.:.&.:.&.&.&.*.7.( U h 1 $.a.@.*.&.*.( ] *.,.*.&.] @.O.&.&.*.&.&.,.k 9 =.x.&.&.&.:.",
"*.*.{ &.*.@.@.*.&.*.:.,.&.] @.:.] ) E J e ~ ,.&.&.:.O.I @.&.:.@.] O.&.*.*.&.&.*.*.&.f B J.&.&.&.&.&.",
"7.) ) *.*.] O.*.*.*.*.&.O.] O.{ ( *.O.R e S @.*.*.*.) { O.O.*.O.] &.@.*.&.&.:.*.( ( k B m.@.&.&.*.*.",
"{ { *.*.&.*.*.&.*.*.O.] O.@.O.@.*.*.:.U 1 I ] :.*.{ { &.&.&.*.@.{ ] &.@.,.&.( ( ) ] 0 v =.@.&.,.&.( ",
"Y ( &.:.,.:.,.:.:.*.:.,.*.:.7.7.&.*.x.A - ] :.7.{ ( :.&.:.,.:.7.O.&.&.&.O.) ~ O.*.*.1 e :.&.,.&.Y U ",
"h R E ] ( U A g g A Y I ( ] I V U } ( e 2 W U V U [ ' R E ] I k Y ~ Y E Y ' ' ' ' I 1 9 I ' ( k a L ",
"> 9 6 6 = - X o + ; X   = 1   . 8 i - - 5 2 = ; e p e e 1 9 - O - > > e 9 f 0 0 9 = ; ; - y ; ; q p ",
"o. . . .X.~ I z ; &.(.I.%.%.) ~ e * S m.%.-.%.;.-.n x ! S M Y ) b l z z r 5 4 2 ; ! ;.$.Y y ;.;.X.o.",
"h.q.7.7.7.,.&.< Q `.^.S.,.I.S.,.( $.J.,.&.,.x.7.} [ a.0.@.' *.' 2 l G.).a.7.e.e.7.7.x.x.&.] x.x.:.7.",
"&.&.&.&.,.*.] 9 S a.=.7.e.*.&.*.&.@.&.{ @.*.] =.( W.*.&.*.*.7.( @ X./.7.e.,.,.,.:.&.&.*.@.&.&.@.*.;.",
"&.&.,.,.&.,.~ 6 M a.;.a.,.&.*.&.*.*.O.] ) @.*.%.O.*.&.&.&.*.*.U 9 H m.,.&.&.&.&.&.&.*.:.( { *.@.S.7.",
"&.&.,.&.&.{ ] f M a.,.@.&.*.&.&.&.O.&.{ ( &.*.] &.:.&.&.&.7.( k e M &.*.&.&.*.*.&.&.*.*.@.&.&.=.7.&.",
"&.&.&.*.@.O.:.f B S.&.&.&.&.&.&.&.*.7.&.{ { &.&.*.&.&.&.&.O.( ] g e U ( O.&.*.&.O.O.&.*.*.&.=.a.@.&.",
"&.&.&.&.&.*.&.f D x.&.,.,.&.&.&.&.:.*.] ] ~ &.&.&.&.&.*.,.&.:.:.g p E ( { ( ( ] &.@.&.*.&.&.*.7.&.&.",
"&.&.*.*.*.O.] f D e.&.,.,.&.&.&.*.7.] ( ] O.*.*.&.&.*.{ { O.&.] f p *.,.&.{ { ( *.&.*.*.&.&.&.@.*.*.",
"*.7.&.@.] ( ( 0 D a.:.:.&.*.&.&.*.] ( O.*.&.&.&.{ &.] E ) @.*.( 0 p :.&.*.*.&.O.] *.,.*.&.*.] ( *.&.",
"&.*.) Y ] &.] > F x.,.&.:.&.&.*.] ( @.&.,.&.] ] ] *.&.*.@.O.*.O.8 e @.&.@.*.&.&.*.7.@.@.*.&.( ] @.O.",
"( ~ { ] O.*.{ > B 4.,.,.O.O.:.,.) @.Y Q @.&.] ] ~ ] :.,.&.*.,.,.e p ] &.&.*.:.,.7.( ] @.,.,.&.*.@.O.",
"e R U U L k 8 w x p k g L d A e e % % 1 % < k g f L R e k U i % - q e e g g k R U j f k p : 8 p e k "
};
