/* XPM */
static char *Chest4[] = {
/* columns rows colors chars-per-pixel */
"50 50 15 1 ",
"  c None",
". c #26150B",
"X c #381F14",
"o c #292726",
"O c #422219",
"+ c #4A261F",
"@ c #522A26",
"# c #5C2D2D",
"$ c #633333",
"% c gray25",
"& c #5A5A5A",
"* c #496369",
"= c #547375",
"- c #5C7A78",
"; c #9BB0B7",
/* pixels */
"                                                  ",
"                                                  ",
"                                                  ",
"                                                  ",
"                                                  ",
"                                                  ",
"                                                  ",
"                                                  ",
"                                                  ",
"                                                  ",
"                                                  ",
"                                                  ",
"                                                  ",
"            $$$$$$;;$$$$$$$$$$;;$$$$$$            ",
"            ++++++++++++++++++++++++++            ",
"            +X+X+X+++XXX+X+X+XXX++XX++            ",
"            XXXXX+XXX+X+XXXXX+XXXX+XXX            ",
"            oXXXXXXXXXXXXXXXXXXXXXXXXX            ",
"            ..........................            ",
"            ..........................            ",
"           %..........................%           ",
"           %..........................%           ",
"           &..........................&           ",
"           &@@@@@@--##------##--@@@@@@&           ",
"            +@+@@@--###-oo-@+#--+@@@@+            ",
"            @+@@+@-=@+@----@+@--@@+@+@            ",
"            @+#++@==#++@@#+@@+==@@+#+#            ",
"            -*=*===-==*==**===-*===***            ",
"            +O++O+*=+O++++O+++*=O++O+O            ",
"            O+O+XO*=XOOX+O+OOO=*X+O++O            ",
"            X+X+XO**XOOXOOXOX+**X+XX+X            ",
"            XXXXXX**XXXXXXXXXX**XXXXXX            ",
"            oo                      oo            ",
"            oo                      oo            ",
"                                                  ",
"                                                  ",
"                                                  ",
"                                                  ",
"                                                  ",
"                                                  ",
"                                                  ",
"                                                  ",
"                                                  ",
"                                                  ",
"                                                  ",
"                                                  ",
"                                                  ",
"                                                  ",
"                                                  ",
"                                                  "
};
