/* XPM */
static char *Chest3[] = {
/* columns rows colors chars-per-pixel */
"50 50 40 1 ",
"  c None",
". c #26150B",
"X c #381F14",
"o c #33200B",
"O c #38240B",
"+ c #292726",
"@ c #442D0B",
"# c #4B330C",
"$ c #573D0C",
"% c #442914",
"& c #482D14",
"* c #422219",
"= c #4A261F",
"- c #542F1E",
"; c #523614",
": c #583B14",
"> c #4C2822",
", c #522A26",
"< c #5C2D2D",
"1 c #5F3624",
"2 c #68392A",
"3 c #633333",
"4 c #6D4F0C",
"5 c #624312",
"6 c #66401C",
"7 c #6D4719",
"8 c #755311",
"9 c #774826",
"0 c gray25",
"q c #5A5A5A",
"w c #496369",
"e c #547375",
"r c #5C7A78",
"t c #687D6C",
"y c #87640D",
"u c #A37B0E",
"i c #77815D",
"p c #C49710",
"a c #CCAE18",
"s c #9BB0B7",
/* pixels */
"                                                  ",
"                                                  ",
"                                                  ",
"                                                  ",
"                                                  ",
"                                                  ",
"                                                  ",
"                                                  ",
"                                                  ",
"                                                  ",
"                                                  ",
"                                                  ",
"                                                  ",
"            333333ss3333333333ss333333            ",
"            ==========;;;;;===========            ",
"            =X=X=X===;;:6:6;-&XX==XX==            ",
"            XXXXX=XX;6575555:-&XXX=XXX            ",
"            +XXXXXX;:58888885:%&XXXXXX            ",
"            ......@#$4yyyyyy4$#oO.....            ",
"            .....@#$4yyuuuuyy4$#oO....            ",
"           0....@#$4yyuppppuyy4$#oO...0           ",
"           0...@#$4yyuppaappuyy4$#oO..0           ",
"           q.O@#$4yyuppaaaappuyy4$#oO.q           ",
"           q,>>>,1tt29iiiiii92tt1>>>>,q           ",
"            =,=,,,rr<<<r++r,=<rr=,,,,=            ",
"            ,=,,=,re,=,rrrr,=,rr,,=,=,            ",
"            ,=<==,ee<==,,<=,,=ee,,=<=<            ",
"            rweweeereeweewweeerweeewww            ",
"            =*==*=we=*====*===we*==*=*            ",
"            *=*=X*weX**X=*=***ewX=*==*            ",
"            X=X=X*wwX**X**X*X=wwX=XX=X            ",
"            XXXXXXwwXXXXXXXXXXwwXXXXXX            ",
"            ++                      ++            ",
"            ++                      ++            ",
"                                                  ",
"                                                  ",
"                                                  ",
"                                                  ",
"                                                  ",
"                                                  ",
"                                                  ",
"                                                  ",
"                                                  ",
"                                                  ",
"                                                  ",
"                                                  ",
"                                                  ",
"                                                  ",
"                                                  ",
"                                                  "
};
