/* XPM */
static char *Chest2[] = {
/* columns rows colors chars-per-pixel */
"50 50 43 1 ",
"  c None",
". c #26150B",
"X c #381F14",
"o c #38240B",
"O c #292726",
"+ c #442D0B",
"@ c #4B330C",
"# c #573D0C",
"$ c #442914",
"% c #482D14",
"& c #422219",
"* c #4A261F",
"= c #542F1E",
"- c #523614",
"; c #583B14",
": c #58331E",
"> c #613B1D",
", c #4C2822",
"< c #522A26",
"1 c #5C2D2D",
"2 c #5F3624",
"3 c #68392A",
"4 c #633333",
"5 c #6D4F0C",
"6 c #624312",
"7 c #66401C",
"8 c #6D4719",
"9 c #755311",
"0 c #7C5616",
"q c gray25",
"w c #5A5A5A",
"e c #496369",
"r c #547375",
"t c #5C7A78",
"y c #687D6C",
"u c #87640D",
"i c #8B6610",
"p c #A37B0E",
"a c #825423",
"s c #C49710",
"d c #CCAE18",
"f c #828452",
"g c #9BB0B7",
/* pixels */
"                                                  ",
"                                                  ",
"                                                  ",
"                                                  ",
"                                                  ",
"                                                  ",
"                                                  ",
"                                                  ",
"                                                  ",
"                                                  ",
"                                                  ",
"                                                  ",
"                                                  ",
"            444444gg4444444444gg444444            ",
"            *********=>>>>>>=:********            ",
"            *X*X*X**>;6686867+%%**XX**            ",
"            XXXXX*X-;890999967+$%X*XXX            ",
"            OXXXXX-;69iiiiii96;+$%XXXX            ",
"            .....++@#5uppppu5#@@+o....            ",
"            ....+@@#5uppssppu5##@+o...            ",
"           q...+@##5uppsddsppu55#@+o..q           ",
"           q..+@#55uppsddddsppuu5#@+o.q           ",
"           wo+@#5uuppsddddddsppuu5#@+ow           ",
"           w,,,<22yy3affffffa3yy22,,,,w           ",
"            *<*<<<tt111tOOt<*1tt*<<<<*            ",
"            <*<<*<tr<*<tttt<*<tt<<*<*<            ",
"            <*1**<rr1**<<1*<<*rr<<*1*1            ",
"            tererrrtrrerreerrrterrreee            ",
"            *&**&*er*&****&***er&**&*&            ",
"            &*&*X&erX&&X*&*&&&reX*&**&            ",
"            X*X*X&eeX&&X&&X&X*eeX*XX*X            ",
"            XXXXXXeeXXXXXXXXXXeeXXXXXX            ",
"            OO                      OO            ",
"            OO                      OO            ",
"                                                  ",
"                                                  ",
"                                                  ",
"                                                  ",
"                                                  ",
"                                                  ",
"                                                  ",
"                                                  ",
"                                                  ",
"                                                  ",
"                                                  ",
"                                                  ",
"                                                  ",
"                                                  ",
"                                                  ",
"                                                  "
};
