/* XPM */
static char *Chest1[] = {
/* columns rows colors chars-per-pixel */
"50 50 16 1 ",
"  c None",
". c #381F14",
"X c #292726",
"o c #422219",
"O c #4A261F",
"+ c #522A26",
"@ c #5C2D2D",
"# c #633333",
"$ c #693738",
"% c gray25",
"& c #5A5A5A",
"* c #496369",
"= c #547375",
"- c #5C7A78",
"; c #9BB0B7",
": c #B3C4C7",
/* pixels */
"                                                  ",
"                                                  ",
"                                                  ",
"                                                  ",
"                                                  ",
"                                                  ",
"                                                  ",
"                                                  ",
"                                                  ",
"                                                  ",
"                                                  ",
"                                                  ",
"                                                  ",
"                                                  ",
"            @@@@@@;;@@@@@@@@@@;;@@@@@@            ",
"            @@#@@#:;@@@##@#@##;:#@##@@            ",
"            @###@#;:@#########:;#@#@##            ",
"            ######;;###@#@#@@#;:###@##            ",
"            @#@#@#;:##@@#@#@##:;###@@#            ",
"           %@#@###:;#@###@####;;$@####%           ",
"           %$$#@##;;$##@$##@$$:;$$@@@$%           ",
"           &$$$$$$::$$$$$$$$$$;:$$$$$$&           ",
"           &++++++**++******++**++++++&           ",
"            O+O+++--@@@-XX-+O@--O++++O            ",
"            +O++O+-=+O+----+O+--++O+O+            ",
"            +O@OO+==@OO++@O++O==++O@O@            ",
"            -*=*===-==*==**===-*===***            ",
"            OoOOoO*=OoOOOOoOOO*=oOOoOo            ",
"            oOoO.o*=.oo.OoOooo=*.OoOOo            ",
"            .O.O.o**.oo.oo.o.O**.O..O.            ",
"            ......**..........**......            ",
"            XX                      XX            ",
"            XX                      XX            ",
"                                                  ",
"                                                  ",
"                                                  ",
"                                                  ",
"                                                  ",
"                                                  ",
"                                                  ",
"                                                  ",
"                                                  ",
"                                                  ",
"                                                  ",
"                                                  ",
"                                                  ",
"                                                  ",
"                                                  ",
"                                                  ",
"                                                  "
};
