/* XPM */
static char *_df94a9577a74bf3c35e2fe11cf54509J2IvdGx6qV4dxvmJ[] = {
/* columns rows colors chars-per-pixel */
"30 30 4 1 ",
"  c None",
". c gray3",
"X c #FFBD08",
"o c white",
/* pixels */
"                              ",
"                              ",
"                              ",
"                              ",
"                              ",
"                              ",
"                              ",
"                              ",
"                              ",
"                              ",
"           .. .. ..           ",
"          .oo.oo.oo.          ",
"           .oooooo.           ",
"            .oooo.            ",
"            ..XX..            ",
"          ..oooooo..          ",
"         .oooooooooo.         ",
"        .oooo.oo.oooo.        ",
"        .ooo......ooo.        ",
"       .ooooo.oo.ooooo.       ",
"       .oooo......oooo.       ",
"       .ooooo.oo.ooooo.       ",
"       .ooooo.oo.ooooo.       ",
"        .ooooo..ooooo.        ",
"         ..oooooooo..         ",
"           ........           ",
"                              ",
"                              ",
"                              ",
"                              "
};
