/* XPM */
static char *death9[] = {
/* columns rows colors chars-per-pixel */
"56 50 18 1 ",
"  c None",
". c #1D0E00",
"X c #1C1E1E",
"o c #2C1B02",
"O c #341F00",
"+ c #181225",
"@ c #450000",
"# c #740000",
"$ c #4D3305",
"% c #3A3746",
"& c #4C4C4C",
"* c #636565",
"= c #7E7F80",
"- c #C2AF8C",
"; c #D8C199",
": c #EBD4A7",
"> c #DCDAE9",
", c gray98",
/* pixels */
"                                                        ",
"                                                        ",
"                                                        ",
"                                                        ",
"                                                        ",
"                                                        ",
"                                                        ",
"                                                        ",
"                                                        ",
"                                                        ",
"                                                        ",
"                                                        ",
"                                                        ",
"                                                        ",
"                                                        ",
"                                                        ",
"                                                        ",
"                                                        ",
"                                                        ",
"                                                        ",
"                                                        ",
"                                                        ",
"                                                        ",
"                                                        ",
"                                                        ",
"                                                        ",
"                                                        ",
"                                                        ",
"                                                        ",
"                                                        ",
"                                                        ",
"                                                        ",
"                                                        ",
"                                    @@@@                ",
"                @           OO@@@@@@@@@@@@@      XXXXX  ",
"                @@@   @@@@@OOOOX&&&X%%%@@##@@ XXXXXXXX* ",
"                @@@@@@@@@@@@OOX&&&&X%%%%%#@@@@XXXX##X** ",
"            $$$O @@@@@%%%%%%%.=o&&X++%%%%#@@@;;XXXXX#*  ",
"         O$$$$$OOO%%%%%%%%%%%.=oooooo+%%#@@@;;::-XXXX   ",
"        OO$$$$$OOO%%%%%%%%%%%.=ooooooooo#@@@::::;:XX*   ",
"        OO$$$$$$OO%%%%%%%%%%%@@$$$$ooooo#@@@@:;;:::**   ",
" XX>>,,,,O$   $OOOO%%%%%%%%%%##$$$$$$ooo#@@@@@::;:X*    ",
"                                                        ",
"                                                        ",
"                                                        ",
"                                                        ",
"                                                        ",
"                                                        ",
"                                                        ",
"                                                        "
};
