/* XPM */
static char *death1[] = {
/* columns rows colors chars-per-pixel */
"50 50 22 1 ",
"  c None",
". c #1E0000",
"X c #1C1003",
"o c #1A1C1C",
"O c #3F0100",
"+ c #2F1C07",
"@ c #281909",
"# c #171421",
"$ c #32313D",
"% c #6D0100",
"& c #462C0F",
"* c #434343",
"= c #585A5A",
"- c #737475",
"; c #E90008",
": c #F78E00",
"> c #E9FF00",
", c #BDA484",
"< c #D6B791",
"1 c #ECCCA1",
"2 c #D6D5E5",
"3 c #F9F9F9",
/* pixels */
"                                                  ",
"                                                  ",
"                                                  ",
"                           o==                    ",
"                          ooo==                   ",
"                          oooo%oo==               ",
"                          ooo%oooo==              ",
"                          ooo%oooo1o              ",
"                          ooo ooo111              ",
"                           ooOoo,<1<              ",
"                           oOOoo11<1              ",
"                         %%oOOo<11<1              ",
"                        %%%%OOO<<11               ",
"                       $$$$%%OOO<1O               ",
"                      $$$$$$@%OOOOOO              ",
"                     $$$$$$$@@%%OOO%              ",
"                    $$$$##$@@@@@%%%%              ",
"                    oo$#OO#@@@@@@@@#              ",
"                  oo**oOOO@@@@@@@@@#              ",
"                  oo***OO@@@@@&&@@@#              ",
"                  o***OOO@@@@&&&@@#               ",
"                  oo**OO@@@@&&&&&@                ",
"                  ++oOOO@@@@&&&&&                 ",
"                 ++++OO--@@&&&&&@                 ",
"                 ooo;OOXX--O&&&@o                 ",
"                ooo;;oX$$XXO%--ooo                ",
"                oo;;oo$$$$$$%XXoooX               ",
"                 ;;;oO$$$$$$### ooXX              ",
"                ;:;;O$$$$$$##### XXX              ",
"                ::;;;$$$$$$#####  X               ",
"               OO::;;$$$$$######                  ",
"               OO:O>;;$$$$.#####                  ",
"              OOOOO>:;$$$...####                  ",
"              OOOOO>2;$$$...####                  ",
"              OOOOO32:;$... ####                  ",
"               OOO;O;:$$.   ####                  ",
"                  ;:;;;+    XXXX                  ",
"                   ::;:;   XXXXX                  ",
"                   +:>:;   XXXXX                  ",
"                   &&>2:   XXXX                   ",
"                   &&&32   XXXX                   ",
"                  &&&& 3   XXX                    ",
"                  &&&&     XXX                    ",
"                  &&&&     XXX                    ",
"                  &+++     XXXX                   ",
"                  +++++    XXXXX                  ",
"                  +++++    XXXXX                  ",
"                                                  ",
"                                                  ",
"                                                  "
};
