/* XPM */
static char *death4[] = {
/* columns rows colors chars-per-pixel */
"50 50 20 1 ",
"  c None",
". c #1E0000",
"X c #1C1003",
"o c #1A1C1C",
"O c #3F0100",
"+ c #2F1C07",
"@ c #281909",
"# c #171421",
"$ c #32313D",
"% c #6D0100",
"& c #462C0F",
"* c #434343",
"= c #585A5A",
"- c #737475",
"; c #BDA484",
": c #B1B0BD",
"> c #D6B791",
", c #ECCCA1",
"< c #D6D5E5",
"1 c #F9F9F9",
/* pixels */
"                                                  ",
"                        o==                       ",
"                       ooo==                      ",
"                       oooo%oo==                  ",
"                       ooo%oooo==                 ",
"                       ooo%oooo,o                 ",
"                       ooo ooo,,,                 ",
"                        oo oo;>,>                 ",
"                        o  oo,,>,                 ",
"                        o  o>,,>,                 ",
"                         OOO>>,,O                 ",
"                        OOOOO>,OOO                ",
"                        OOOOOOOOOO                ",
"                        %%OOOOOOOO%               ",
"                       %%%%%%OOOO%%%              ",
"                      %%$$$@@%%%%%@#              ",
"                      $$$$$$@@@@@@@#              ",
"                     $$$$$$$@@@@@@@#              ",
"                     $$$##$@@@@@@@@#              ",
"                    $$$#OO#@@@@&&@@               ",
"                    oo#OOOO@@@&&&&@               ",
"                    **oOOOO@@@&&&&@               ",
"                   ****OOOO@@&&&&&@               ",
"                   ***OOOO@@@&&&&&@o              ",
"                   o**OOOO@@&&&&&&@ooX            ",
"                   +oOOOOO----O%--ooXXX           ",
"                  +++OOOOXXXXXO%XX oXXX           ",
"                  +++OOOO$$$$$$###  XX            ",
"                   +OOOOO$$$$$$###                ",
"             oo     OOOO$$$$$$#####               ",
"             oo     OOOO$$$$$$#####               ",
"             oo    OOOOO$$$$$######               ",
"             oo    OOOO$$$$$$.#####               ",
"             oo   OOOOO$$$$$...####               ",
"           oooooo OOOOO$$$$.. #####               ",
"           oo1<ooOOOOO$$$$$   ####                ",
"            o1<o OO   $$$$    ####                ",
"             1<      ++++     XXXX                ",
"             1<:    +++++    XXXXX                ",
"              1<    ++&&+    XXXXX                ",
"              1<    &&&&     XXXX                 ",
"              1<    &&&&     XXXX                 ",
"               1<  &&&&      XXX                  ",
"               1<  &&&&      XXX                  ",
"                1<&&&&       XXX                  ",
"                1<&+++       XXXX                 ",
"                  1++++      XXXXX                ",
"                  +++++      XXXXX                ",
"                                                  ",
"                                                  "
};
