/* XPM */
static char *death3[] = {
/* columns rows colors chars-per-pixel */
"50 50 24 1 ",
"  c None",
". c #1E0000",
"X c #1C1003",
"o c #1A1C1C",
"O c #3F0100",
"+ c #2F1C07",
"@ c #281909",
"# c #171421",
"$ c #32313D",
"% c #3D3E3E",
"& c #6D0100",
"* c #462C0F",
"= c #434343",
"- c #585A5A",
"; c #737475",
": c #E90008",
"> c #F78E00",
", c #E9FF00",
"< c #BDA484",
"1 c #B1B0BD",
"2 c #D6B791",
"3 c #ECCCA1",
"4 c #D6D5E5",
"5 c #F9F9F9",
/* pixels */
"                                                  ",
"                                                  ",
"                  o--                             ",
"                 ooo--                            ",
"                 oooo&o---                        ",
"                 ooo&oooo3                        ",
"                 ooo&ooo332                       ",
"                 ooo oo<223                       ",
"                  oo ooo3323                      ",
"                  o   oo3333                      ",
"                  o   o2233OO                     ",
"                      OO23OOOO                    ",
"                     OOOOOOOOO&&                  ",
"                    OOOOOOOOO&&@#                 ",
"                    OOOOOO&&&&@@#                 ",
"                    &&&&&&&&@@@@#                 ",
"                   &&&$$$@@@@@@@@#                ",
"                   &&$$$$$@@@@@@@#                ",
"                   $$$$$$@@@@@**@#                ",
"                  $$$$$##@@@@***@#                ",
"                  $$$##OO#@@@***@o                ",
"                 $$$$#OOOO@@****@oo               ",
"                 oo$#OOOO@@******ooX              ",
"              oo===oOOOOO@@****;;ooXX             ",
"              oo====OOOOO@@*;O&XX XXX             ",
"              o==== OOOOO;;;XO&##O X              ",
"              oo== OOOOOOXXX$$$###                ",
"              ++o: OOOOOO$$$$$$###                ",
"             +++:: OOOOOO$$$$$$###O               ",
"             ooo:  OOOOO$$$$$$#####O              ",
"            ooo:>o OOOOO$$$$$$#####O              ",
"            oo,>>o OOOOO$$$$$######O              ",
"             o,>o  OOOO$$$$$$.#####O              ",
"              >4   OOOO$$$$$...####               ",
"             :>4    OOO$$$$$...####               ",
"             >541   OOO$$$$....####               ",
"             > 54   OOO$$$$..  ####               ",
"               54    O%++++.   XXXX               ",
"               54    O+++++   XXXXX               ",
"               54     ++**+   XXXXX               ",
"                54    ****    XXXX                ",
"                54    ****    XXXX                ",
"                54   ****     XXX                 ",
"                 54  ****     XXX                 ",
"                 54  ****     XXX                 ",
"                  54 *+++     XXXX                ",
"                   5 +++++    XXXXX               ",
"                     +++++    XXXXX               ",
"                                                  ",
"                                                  "
};
