/* XPM */
static char *death2[] = {
/* columns rows colors chars-per-pixel */
"50 50 23 1 ",
"  c None",
". c #1E0000",
"X c #1C1003",
"o c #1A1C1C",
"O c #3F0100",
"+ c #2F1C07",
"@ c #281909",
"# c #171421",
"$ c #32313D",
"% c #3D3E3E",
"& c #6D0100",
"* c #462C0F",
"= c #434343",
"- c #585A5A",
"; c #737475",
": c #E90008",
"> c #F78E00",
", c #E9FF00",
"< c #BDA484",
"1 c #D6B791",
"2 c #ECCCA1",
"3 c #D6D5E5",
"4 c #F9F9F9",
/* pixels */
"                                                  ",
"                 o--                              ",
"                ooo--                             ",
"               ooooo&o---                         ",
"               oooo&oooo2                         ",
"               oooo&ooo221                        ",
"               ooo  oo<112                        ",
"               oo   ooo2212                       ",
"                o    oo2222                       ",
"                 o   o1122OO                      ",
"                     OO11OOOO                     ",
"                    OOOOOOOOO&&                   ",
"                   OOOOOOOOO&&@#                  ",
"                   OOOOOO&&&&@@#                  ",
"                   &&&&&&&&@@@@#                  ",
"                  &&&$$$@@@@@@@@#                 ",
"                  &&$$$$$@@@@@@@#                 ",
"                  $$$$$$@@@@@**@#                 ",
"                 $$$$$##@@@@****@                 ",
"                 $$$##OO#@@@****@o                ",
"                 $$$#OOOO@@@****@oX               ",
"                oo$#OOOOO@@******oXX              ",
"              oo==oOOOOOO@@****;;XXX              ",
"              oo===OOOOOO@@*;O&XXOX               ",
"              o====OOOOOO;;;XO&##O                ",
"              oo==OOOOOOOXXX$$$###                ",
"              ++o=OOOOOOO$$$$$$###O               ",
"             ++++ OOOOOOO$$$$$$###O               ",
"             oooo OOOOOO$$$$$$#####O              ",
"            oooo:oOOOOOO$$$$$$#####OO             ",
"            oo:::o OOOOO$$$$$######OO             ",
"            :o:::  OOOO$$$$$$.#####OO             ",
"            :::3:  OOOO$$$$$...####O              ",
"             :,3   OOOO$$$$$...####               ",
"              ,3>:  OOO$$$$....####               ",
"               4>   OOO$$$$... ####               ",
"               4:    O%++++.   XXXX               ",
"               4:     +++++   XXXXX               ",
"               ::     ++**+   XXXXX               ",
"              :>>:    ****    XXXX                ",
"              >>,:    ****    XXXX                ",
"              > ,3    ****    XXXX                ",
"                 43  ****     XXX                 ",
"                 43  ****     XXX                 ",
"                  43 ****     XXX                 ",
"                   4 *++++    XXXX                ",
"                     +++++     XXXX               ",
"                      ++++     XXXX               ",
"                                                  ",
"                                                  "
};
