/* XPM */
static char *death7[] = {
/* columns rows colors chars-per-pixel */
"50 50 19 1 ",
"  c None",
". c gray3",
"X c #1C1003",
"o c #1A1C1C",
"O c #3F0100",
"+ c #2F1C07",
"@ c #281909",
"# c #171421",
"$ c #32313D",
"% c #6D0100",
"& c #462C0F",
"* c #434343",
"= c #585A5A",
"- c #737475",
"; c #BDA484",
": c #D6B791",
"> c #ECCCA1",
", c #D6D5E5",
"< c #F9F9F9",
/* pixels */
"                                                  ",
"                                                  ",
"                                                  ",
"                                                  ",
"                                                  ",
"                                                  ",
"                                                  ",
"                                                  ",
"                                o==               ",
"                               ooo==              ",
"                               oooo%oo==          ",
"                              oooo%oooo==         ",
"                              oooo%oooo>o         ",
"                              ooo  ooo>>>         ",
"                             ooo OOoo;:>:         ",
"                            oo  OOOoo>>:>         ",
"                              %%OOOo:>>:>         ",
"                             %%%%OOO::>>          ",
"                            $$$$%%OOO:>O          ",
"                           $$$$$$@%OOOOOO         ",
"                          $$$$$$$@@%%OOO%         ",
"                         $$$$##$@@@@@%%%%         ",
"                         oo$#OO#@@@@@@@@#         ",
"                         **oOOO@@@@@@@@@#         ",
"                        ****OO@@@@@&&@@@#         ",
"                        ***OOO@@@@&&&@@#          ",
"                        o**OO@@@@&&&&&@           ",
"                        +oOOO@@@@&&&&&            ",
"                       +++OO--@@&&&&&@            ",
"                       +++OOXX--O&&&@o            ",
"                       O+OOO$$XXO%--ooo           ",
"                      OOOOOO$$$$$%XXoooX          ",
"                      OOOOO$$$$$$$###ooXX         ",
"                     OOOOOO$$$$$$#### XXX         ",
"                    OOOOOOO$$$$$$####  X          ",
"                   OOOOOOO$$$$$$#####             ",
"                  OOOOOOOO$$$$$$#####             ",
"                   &&&+OO$$$$$$ #####             ",
"                +&&&&&+++$$$$$XX#####             ",
"               ++&&&&&+++$$$$.XXX###              ",
"               ++&&&&&&++$$$$.XXX###              ",
"        oo,,<<<<+&   &++++$$XXXXXX#               ",
"                                                  ",
"                                                  ",
"                                                  ",
"                                                  ",
"                                                  ",
"                                                  ",
"                                                  ",
"                                                  "
};
