/* XPM */
static char *death6[] = {
/* columns rows colors chars-per-pixel */
"50 50 19 1 ",
"  c None",
". c gray3",
"X c #1C1003",
"o c #1A1C1C",
"O c #3F0100",
"+ c #2F1C07",
"@ c #281909",
"# c #171421",
"$ c #32313D",
"% c #6D0100",
"& c #462C0F",
"* c #434343",
"= c #585A5A",
"- c #737475",
"; c #BDA484",
": c #D6B791",
"> c #ECCCA1",
", c #D6D5E5",
"< c #F9F9F9",
/* pixels */
"                                                  ",
"                                                  ",
"                                                  ",
"                                                  ",
"                                                  ",
"                                                  ",
"                           o==                    ",
"                          ooo==                   ",
"                          oooo%oo==               ",
"                          ooo%oooo==              ",
"                          ooo%oooo>o              ",
"                          ooo ooo>>>              ",
"                           oo oo;:>:              ",
"                           o  oo>>:>              ",
"                           o  o:>>:>              ",
"                            OOO::>>O              ",
"                           OOOOO:>OOO             ",
"                           OOOOOOOOOO             ",
"                           %%OOOOOOOO%            ",
"                          %%%%%%OOOO%%%           ",
"                         %%$$$@@%%%%%@#           ",
"                         $$$$$$@@@@@@@#           ",
"                         $$$$$$@@@@@@@#           ",
"                        $$$$#$@@@@@@@@#           ",
"                        $$$#O#@@@@&&@@            ",
"                        oo#OOO@@@&&&&@            ",
"                        **oOOO@@@&&&&@            ",
"                       ****OOO@@&&&&&@o           ",
"                       ****OO@@@&&&&&@oX          ",
"                       oo*OOO@@&&&&&&@XXX         ",
"                       ++oOOO----O%--oXXX         ",
"                       +++OOOXXXXO%XX XX          ",
"                       +++OOO$$$$$$##             ",
"                       O+OOO$$$$$$$###            ",
"                      OOOOOO$$$$$$####            ",
"                      OOOOOO$$$$$$####            ",
"                     OOOOOO$$$$$$#####            ",
"                     OOOOOO$$$$$$#####            ",
"                    &&&+OO$$$$$$ #####            ",
"                 +&&&&&+++$$$$$XX#####            ",
"                ++&&&&&+++$$$$.XXX###             ",
"                ++&&&&&&++$$$$.XXX###             ",
"         oo,,<<<<+&   &++++$$XXXXXX#              ",
"                                                  ",
"                                                  ",
"                                                  ",
"                                                  ",
"                                                  ",
"                                                  ",
"                                                  "
};
