/* XPM */
static char *Door4[] = {
/* columns rows colors chars-per-pixel */
"50 50 180 2 ",
"   c None",
".  c #010301",
"X  c #050904",
"o  c #0C0905",
"O  c #0C0B09",
"+  c #090603",
"@  c #140500",
"#  c #110902",
"$  c #1E0C03",
"%  c #120F0D",
"&  c #0D110D",
"*  c #14110E",
"=  c #1C120A",
"-  c #0F1310",
";  c #151210",
":  c #1B1613",
">  c #161A15",
",  c #1A1B16",
"<  c #171B18",
"1  c #1B1C1A",
"2  c #22160D",
"3  c #25180F",
"4  c #221710",
"5  c #251A12",
"6  c #2B1D15",
"7  c #231E1B",
"8  c #2A1F1C",
"9  c #321D11",
"0  c #1D221C",
"q  c #202117",
"w  c #24221F",
"e  c #2E221B",
"r  c #322017",
"t  c #32251D",
"y  c #37281F",
"u  c #1B1F23",
"i  c #1C2123",
"p  c #1B2229",
"a  c #1C2533",
"s  c #1E2B35",
"d  c #1F2D3A",
"f  c #232422",
"g  c #2B2522",
"h  c #252B25",
"j  c #2E2A26",
"k  c #282728",
"l  c #272928",
"z  c #2B2C2B",
"x  c #362720",
"c  c #332923",
"v  c #392B23",
"b  c #322D2A",
"n  c #382D2A",
"m  c #2B332C",
"M  c #2D392E",
"N  c #273326",
"B  c #34322D",
"V  c #3E312A",
"C  c #30392F",
"Z  c #303424",
"A  c #202A37",
"S  c #212D39",
"D  c #21303E",
"F  c #323231",
"G  c #3B3533",
"H  c #323D32",
"J  c #373739",
"K  c #3B3B3B",
"L  c #3D3935",
"P  c #42362E",
"I  c #413732",
"U  c #423935",
"Y  c #463D39",
"T  c #364135",
"R  c #384537",
"E  c #3E413E",
"W  c #3E4C3D",
"Q  c #40403F",
"!  c #1F3141",
"~  c #213343",
"^  c #233748",
"/  c #253A4C",
"(  c #243D52",
")  c #2A3E52",
"_  c #294056",
"`  c #2A445B",
"'  c #2D485F",
"]  c #2D4A64",
"[  c #2D4D6A",
"{  c #2B4762",
"}  c #314C64",
"|  c #304F69",
" . c #2F506D",
".. c #31516E",
"X. c #2F5473",
"o. c #2F577A",
"O. c #325573",
"+. c #335974",
"@. c #315778",
"#. c #335B7B",
"$. c #3B617F",
"%. c #434443",
"&. c #454947",
"*. c #484947",
"=. c #4C4C4C",
"-. c #494341",
";. c #4D514E",
":. c #485544",
">. c #555455",
",. c #565856",
"<. c #585758",
"1. c #5C5D5C",
"2. c #5E605E",
"3. c #646565",
"4. c #686668",
"5. c #6C6C6C",
"6. c #6C716D",
"7. c #6F6E70",
"8. c #767677",
"9. c #355E81",
"0. c #366185",
"q. c #3A6384",
"w. c #36648A",
"e. c #39668A",
"r. c #37688F",
"t. c #3A698E",
"y. c #376992",
"u. c #3A6C94",
"i. c #3A6E98",
"p. c #3F7097",
"a. c #3B729C",
"s. c #3C75A2",
"d. c #3D78A6",
"f. c #3D7BAB",
"g. c #3F7FB0",
"h. c #437295",
"j. c #41749B",
"k. c #457BA4",
"l. c #4A7EA3",
"z. c #427EAC",
"x. c #487FA8",
"c. c #4681AD",
"v. c #4A83AD",
"b. c #4483B3",
"n. c #4C87B1",
"m. c #4C88B4",
"M. c #448BBE",
"N. c #4489BC",
"B. c #4A8EBF",
"V. c #4C8CBB",
"C. c #5188B0",
"Z. c #518FBB",
"A. c #5190BD",
"S. c #468DC2",
"D. c #498FC2",
"F. c #4F91C1",
"G. c #4E92C3",
"H. c #4D96CB",
"J. c #4F98CD",
"K. c #5193C2",
"L. c #5296C6",
"P. c #5498C7",
"I. c #5197C9",
"U. c #5499CA",
"Y. c #549ACC",
"T. c #599ECE",
"R. c #539DD2",
"E. c #56A0D5",
"W. c #5CA3D2",
"Q. c #59A4D9",
"!. c #53A1D9",
"~. c #61A8D7",
"^. c #63ACDC",
"/. c #69AFDC",
"(. c #61A6D5",
"). c #6BB1DD",
"_. c #5BABE4",
"`. c #67B2E3",
"'. c #6BB4E2",
"]. c #72B7E2",
/* pixels */
"                                              O. .O...                                              ",
"                                        ' { w.f.w.f.f.0.{ {                                         ",
"                                    ` y.f.d.D.F.h.Z.K.B.d.f.y.`                                     ",
"                                ) _ u.J.F.K.v.A.h.u.v.m.K.F.J.u.` )                                 ",
"                              [ i.t.x.B.p.j.0.@.O.{ O.e.p.j.B.j.l.k.{                               ",
"                          ) 0.f.J.A.e.X.w.@.O.O.@.O.+.O.@.w.X.e.K.J.f.0.)                           ",
"                        ) 0.S.Y.v.u.@.{ O.@.0.O.` ` O.e.@.O.{ @.u.v.Y.N.0.)                         ",
"                      _ 0.S.B.k.9.@.@.[ .._ ^ s : 1 S ^ ` ..[ @.@.0.k.B.N.9._                       ",
"                      o.F.K.u.X.e. .i u u 1 = : e e : = 1 i 1 p O.e.O.p.K.S.X.                      ",
"                    } B.F.t.@.@.( u 3 t c c I U U U U G c c t 3 u ( @.@.u.F.B.}                     ",
"                  ` ..l.p.@.@.^ = e U Y I j g 1 7 7 7 g j U Y U e = / 0.@.u.u.O.`                   ",
"                { f.c...0.t.d 2 I c g g * * % O O O O % * ; g g b P 5 ^ t.9...b.d.                  ",
"                9.N.P.e.O.^ = V g * O O * * * ; ; ; ; * * * O O * j V = / O.t.Y.N.@.                ",
"                u.B.c.9.` * v G F ; % ; ; ; ; ; ; ; ; ; ; ; ; ; O 1 G v ; { 9.k.F.u.                ",
"              d @.B.j.@.s = g G 3.1 % ; ; ; ; ; ; ; ; ; ; ; * + G 6.w n = D @.t.Y.y.a               ",
"            n.u.` v.k.@.s 6 7 %.=.0 1 * ; ; ; ; ; ; ; ; ; * ; > f 1.F w 6 S @.j.I.o.t.n.            ",
"            e.E.@.l.c.@.s v b m F f 1 * ; ; ; ; ; ; ; ; ; % 1 h ; 1 m j v D @.v.v.9.E.0.            ",
"            @.0.| e.e. .s t g & %.h 1 * ; ; ; ; ; ; ; ; ; % 1 ; K z > b t ^ ..e.$.{ 0.O.            ",
"            ` @.t.0.w.u.s y b & K z > ; ; ; ; ; ; ; ; ; ; % 1 > 5.,.h B c D @.O.@.u.t.9.            ",
"            { @.@.O.O.9.s 6 j X & z X ; ; ; ; ; ; ; ; ; ; : X f F f M j 6 ^ @...O.@.9...            ",
"              _ ` ..{ ..d 4 7 h z f f ; * ; ; ; ; ; ; ; ; * o F z . m j 4 ^ ..{ ..{                 ",
"                @.0.{ O.S 5 o 3.8.z z w * ; ; ; ; ; ; ; * * ; >.5.h m j 4 ^ O.O.u.0.                ",
"                e.k.e.@.D e 1 z 1.=.f f ; * ; ; ; ; ; ; * ; f K 3.1.N b e ^ @.@.x.k.                ",
"                u.b.v.@.d v b . =.<.f f ; * ; ; ; ; ; ; * ; f >.3.z 0 B c ^ 9.@.b.m.                ",
"                u.D.l...s 6 G %.1.=.f f ; * ; ; ; ; ; ; * 1 z >.1.& > L t ! O.r.N.j.                ",
"                e.N.u.O.d 3 -.1.;.=.f f ; * ; ; ; ; ; ; % 1 %.5.>.f h b e ^ ..u.N.r.                ",
"                e.f.0.O.S 5 G i %.4.J f * * ; ; ; ; ; ; % 1 K 1.%.E ;.: 6 ^ O.w.x.u.                ",
"                e.g.0...d c c . *.%.> w : * ; ; ; ; ; ; * f > 0 %.1.&.w c ^ ..0.b.u.                ",
"                w.J.e.@.D e w . E 1 & 1 * ; ; ; ; ; ; ; * 1 & 1 3.3.T g 8 / @.9.N.u.                ",
"                w.E.t.@.^ v c . %.=.F f % * ; ; ; ; ; ; % 1 z K 5.;.M G x / 9.9.N.u.                ",
"                w.J.e.@.D t e & 2.3.z z ; % ; ; ; ; ; ; % f z >.8.z J B e ^ @.0.S.u.                ",
"                u.d.O.O.d t w ; E >.F z ; * ; ; ; ; ; ; % f z >.Q & M b t ^ ..O.f.p.                ",
"                p.u.| @.d v j ; > z J 1 % ; ; ; ; ; ; ; % : z k ; 0 h b c ^ @.| u.u.                ",
"              _ { { ` [ A t w 1 > > J 1 % ; ; ; ; ; ; ; % ; z E f B h g t ^ { ` | { /               ",
"              O.u.e.@.p.` 6 7 1 0 & F 7 % ; ; ; ; ; ; ; % ; %.J 1 m M j 6 { x.e.e.t.t.{             ",
"              e.Q.R.B.Q.[ $ 7 < w & f ; * ; ; ; ; ; ; ; * O =.f & l T j $ +.Q.K.K.Y.B.`             ",
"            h.@.[ @.X.9.D 2 1 > h 1 1 ; * ; ; ; ; ; ; ; ; o b z 0 h h w 5 ^ O.X.X.X.[ }             ",
"            K.Y.k.k.n.R.' 9 g - f 1 ; ; ; ; ; ; ; ; ; ; ; ; * > 1 0 0 b 6 +.R.m.m.m.A.Y.            ",
"          b.u.j.n.F.B.!.{ 9 b O 1 f ; * ; ; ; ; ; ; ; ; ; ; % 0 h > m G r ..J.B.B.m.k.u.x.          ",
"          K.[ @.p.d.w.u.^ t 8 > m 1 ; * ; ; ; ; ; ; ; ; ; * * 1 T J J G t / y.u.y.u.@.[ K.          ",
"          K.[ { O. .{ [ s 5 w R C 1 ; * ; ; ; ; ; ; ; ; ; * * 1 0 :.W g 5 d [ { X.O.{ [ I.          ",
"          ^.k.e.u.u.u.b.( $ B W h 1 > ; ; ; ; ; ; ; ; ; ; * ; 0 f m m w 2 { c.u.u.u.t.k.^.          ",
"          v.Y.I.K.Y.Y._.{ $ g f 1 1 1 * ; ; ; ; ; ; ; ; ; % 1 0 0 T m 7 $ @._.Y.Y.K.n.K.v.          ",
"          { d.g.f.d.u.d.^ @ = 1 * * # # # # # # # # # # # @ # # = Z q % @ _ d.i.d.d.p.u.{           ",
"          ..p.p.p.u.0.e./ p D S S S D D S S S S S S S S S S S S A a d ^ p ` e.e.u.p.d.p...          ",
"          ..9.[ { } { { ` ..p.u.9.9.O.@.9.u.0.9.0.0.9.9.9.0.e.O.9.0.0.0...` { { | { } @.[           ",
"          { { { X. .X.O.X.0.f.d.p.d.O.@.d.x.d.d.p.p.k.d.d.d.0.O.e.p.p.w.@.{ { O.O.O.O.@.{           ",
"          { t.n.F.F.n.f.B.B.B.B.B.f.0.p.B.(.W.W.F.F.W.T.W.K.x.@.u.F.F.B.B.v.p.d.d.d.p.u. .          ",
"          [ b.`.`.`.`.W.`.`.^.^.`.B.w.b.K.T.T.~.^.^.Q./.].].^.p.b.W.W.`.`.`.).^.W.W.K.B.O.          ",
"          0.d.v.v.v.v.m.v.v.v.v.m.k.u.p.p.u.i.x.v.v.v.v.v.v.v.j.p.u.p.v.C.v.m.n.m.m.v.B.e.          "
};
