/* XPM */
static char *Door3[] = {
/* columns rows colors chars-per-pixel */
"50 50 200 2 ",
"   c None",
".  c #020201",
"X  c #0A0604",
"o  c #050A04",
"O  c #0C0907",
"+  c #0C0D0B",
"@  c #070808",
"#  c #120A03",
"$  c #110E0C",
"%  c #170903",
"&  c #0D120C",
"*  c #081007",
"=  c #14110F",
"-  c #1B140D",
";  c #1F1106",
":  c #151311",
">  c #1C1614",
",  c #161A15",
"<  c #191A16",
"1  c #1B1D1A",
"2  c #171A18",
"3  c #200E03",
"4  c #25190F",
"5  c #22150C",
"6  c #211710",
"7  c #221A15",
"8  c #2A1C14",
"9  c #241E1B",
"0  c #311D12",
"q  c #1D221D",
"w  c #1F2D1D",
"e  c #23231E",
"r  c #2C231D",
"t  c #23261C",
"y  c #32251E",
"u  c #352117",
"i  c #1A1E22",
"p  c #1D2322",
"a  c #1D252D",
"s  c #1F2820",
"d  c #1B2636",
"f  c #1E2933",
"g  c #1E2B3B",
"h  c #232521",
"j  c #2B2523",
"k  c #252B24",
"l  c #2B2A26",
"z  c #2C2C2A",
"x  c #272828",
"c  c #312721",
"v  c #342923",
"b  c #392B24",
"n  c #342C2A",
"m  c #3A2F2C",
"M  c #2D342C",
"N  c #2D392D",
"B  c #283027",
"V  c #31332F",
"C  c #3A312D",
"Z  c #333627",
"A  c #202A36",
"S  c #212D39",
"D  c #21303D",
"F  c #333431",
"G  c #3B3330",
"H  c #343C33",
"J  c #3B3D3A",
"K  c #383937",
"L  c #41342C",
"P  c #433935",
"I  c #443D3B",
"U  c #2F412E",
"Y  c #354135",
"T  c #384136",
"R  c #3D443C",
"E  c #3C4B3B",
"W  c #414E3F",
"Q  c #414B37",
"!  c #223649",
"~  c #23394D",
"^  c #283C4C",
"/  c #233545",
"(  c #253D52",
")  c #293E52",
"_  c #3F4A40",
"`  c #2B4155",
"'  c #26425A",
"]  c #2B445C",
"[  c #254057",
"{  c #274661",
"}  c #2E4B64",
"|  c #2E4E6A",
" . c #2B4660",
".. c #304F6A",
"X. c #304C64",
"o. c #2F506D",
"O. c #31516D",
"+. c #2E5272",
"@. c #325573",
"#. c #335877",
"$. c #315779",
"%. c #345B7C",
"&. c #395F7D",
"*. c #444443",
"=. c #434C43",
"-. c #4C4C4C",
";. c #484746",
":. c #504E4E",
">. c #445443",
",. c #485646",
"<. c #4B5A4B",
"1. c #4A5549",
"2. c #4F5050",
"3. c #545454",
"4. c #545A54",
"5. c #5B5C5B",
"6. c #575758",
"7. c #50624D",
"8. c #5C605C",
"9. c #5E685F",
"0. c #5F5E60",
"q. c #646565",
"w. c #6B6B6B",
"e. c #686869",
"r. c #6E716E",
"t. c #716F71",
"y. c #737374",
"u. c #7C7C7C",
"i. c #787778",
"p. c #355E81",
"a. c #366184",
"s. c #396385",
"d. c #36658B",
"f. c #39668A",
"g. c #37688E",
"h. c #3A6A8E",
"j. c #376991",
"k. c #3B6C93",
"l. c #3A6F99",
"z. c #3F7096",
"x. c #3C729C",
"c. c #3B75A2",
"v. c #3F79A6",
"b. c #3E7BAB",
"n. c #3E7EB0",
"m. c #406B8D",
"M. c #426F91",
"N. c #437294",
"B. c #42759C",
"V. c #447AA4",
"C. c #437EAB",
"Z. c #497FA9",
"A. c #487CA0",
"S. c #407FB0",
"D. c #3D80B4",
"F. c #4C80A6",
"G. c #4A83AC",
"H. c #4780AA",
"J. c #4282B3",
"K. c #4B86B2",
"L. c #4D89B4",
"P. c #4185B8",
"I. c #4489BC",
"U. c #4C8CBB",
"Y. c #528CB6",
"T. c #5191BE",
"R. c #478EC2",
"E. c #4C8FC0",
"W. c #4C92C4",
"Q. c #4C95CA",
"!. c #5192C1",
"~. c #5295C4",
"^. c #5297C9",
"/. c #539ACC",
"(. c #589DCD",
"). c #539CD1",
"_. c #5BA0CF",
"`. c #5DA3D4",
"'. c #58A5DC",
"]. c #65ACDC",
"[. c #63A9D6",
"{. c #6AB1DF",
"}. c #64AEE0",
"|. c #6CB5E4",
" X c #64B0E2",
".X c #72B7E2",
"XX c #838383",
"oX c #8C8B8C",
"OX c #8F908F",
"+X c #8F8F90",
"@X c #939393",
"#X c #9B9B9B",
"$X c #989799",
"%X c #A4A4A4",
"&X c #ABABAB",
"*X c #A9A7AA",
"=X c #B0AFB0",
"-X c #BCBCBD",
";X c #B4B4B5",
":X c #CCCCCC",
/* pixels */
"                                              o.O.o.#.                                              ",
"                                        } ] %.n.d.l.D.j.O.]                                         ",
"                                    ) a.b.c.I.).h.G./.W.b.b.l.]                                     ",
"                                  ) %.W.~.~.K.~.N.s.K.K.~.W.Q.c. .)                                 ",
"                              } j.d.B.~.B.z.f.%.%.} +.p.z.z.K.G.A.V.|                               ",
"                          ) %.c.W.~.m.#.a.%.#.#.%.#.#.#.%.a.%.%.L.).b.d.]                           ",
"                        ^ %.P.^.K.l.p.| #.%.a.%.} ] #.a.%.#...#.d.Z./.R.j.`                         ",
"                        #.P.W.Z.a.%.%.| #.] / D 2 > f ! ( | | #.%.%.B.U.R.j.]                       ",
"                      | I.~.B.$.a.%.a 2 p 2 5 - r r 6 - 6 i p 2 ] f.#.h.T.Q.d.                      ",
"                    ` K./.B.%.p.[ a 4 r v v G P P P P P v v y 4 2 ! #.p.f.U.W.O.                    ",
"                  ] | B.V.%.a.( - 8 P I P l j 9 9 9 2 j j G I P v ; S %.%.l.B.#.]                   ",
"                  l.I.#.%.l.^ > L v - 9 > $ = + + + + $ : = > 6 j P 8 f a.f.O.V.K.}                 ",
"                #.b./.z.#.` - b C : F k X $ = : : : : : $ $ k ;.< 9 P - D #.%.~.W.d.                ",
"                d.U.G.p.O.i y C < 4.@XM & < : : : : : = < & V XX4., j L - ( %.B.U.b.]               ",
"              d | K.V.%.^ = m 9 N @Xw.: q h 2 = : : = = h k . I %X1.+ C - a #.s.T.b.!               ",
"            K.B.] B.Z.%.^ 9 j e 8.-.: h k q 2 = : : = = q l , + q.r., 9 y a #.l./.a.a.K.G.          ",
"            %.'.a.M.U.%.^ v n M K @ : q k k 2 = : : = = q k , + : J k h C a #.V.T.#.~.z.            ",
"            #.a.O.&.s.| ^ j n k o K i., k k 2 = : : = = p k & 6.2 & K z y a | p.s.} %.#.]           ",
"            ] #.h.d.a.l.( y n p 2 q.@X2 + k q = : : = = p e + 5.-.q W l b a #.#.%.l.l.a.            ",
"              %.p.#.#.p.( 9 j Y e *.-.-.. o + : : : : : o . u.R : e ;.h 8 a #.#.O.%.a.#.            ",
"                ] O.} ..( 6 r K 2 . h =Xu.k + $ : : : + : -.=X-.. M R h 6 a O.} O.} `               ",
"                #.f.| #.( 6 e q z J + &X-Xq.5.9 O : = O J %XoXz oX8.U 9 6 f O.#.f.f.}               ",
"                a.c.f.%.( r j s k %Xq.r.&Xu.6.j X : $ O 6.#XXXu.oXM E 9 y A #.%.z.K.O.              ",
"                g.K.F.s.( y G N * -.-XoXq.w.*.$ = : $ $ -.XX@X&Xx & Y z b a #.%.z.~.O.              ",
"                d.I.G.#.^ r j <.M . 8.%X5.-.6.: $ : $ : *.i.#XXX2 & k F v a | d.K.K...              ",
"                %.K.z.#.( r 6 9.r.+ *.-X%Xq.6.j X : X h q.%X;Xu.: F M l y a } d.P.c.}               ",
"                %.v.g.#.( 9 9 _ q.M 5.@X&X#Xw.h X : X h @X-X%X6.. 4.J 2 r f | d.b.v.}               ",
"                %.b.d.#.( c n M K 6.i.h : 6.i.j X : X V q.z 2 6.F K K l v a } a.Z.v.}               ",
"                $.W.l.#.' r l k z w.*Xh . : 5.F X : X J k . J -X6.k >.h r f #.%.K.b.}               ",
"                +./.N.$.' c C 2 2 5.@XOX*.F q.z X : X z q.5.:X:Xz w ,.j b f %.p.K.b.}               ",
"                #.W.z.#.' r n M , V t.+Xw.q.:.O = : = X ;.oX#Xi.2 Y >.j y a #.p.K.b.}               ",
"                a.b.#.O.( r n K t = z 0.w.-.F $ : : : X *.w.e.F & T Y j y d | #.z.n.}               ",
"                h.z...%.( c C k k k , : 5.-.2.z X : X j e.u.F . q z M n b a #.O.f.v.}               ",
"              ` } O.] } ^ r l 2 h M k : w.i.q.z X : X z i.u., , M l M l y f } ] } | )               ",
"              | l.f.p.l.%.r j q q M = -.q.-.q.l X : . l @Xw.+ l k K E h 8 ^ Z.h.f.f.l...            ",
"              #./.).~./.B.6 r N q k k & h w.q.z X : O e u.F . M q K >.e 3 ^ ).~.~.~.~.|             ",
"            N.s.} +.#.%.' 6 e k 2 k M & M $X6.= $ : : . -.R , M h k K h 6 f +.+.+.+.| X.            ",
"            T.(.Z.V.K./.h.r n k q , 2 k & R 1.X : : : . -.q.o e < h M z 0 ` /.K.K.K.K.(.            ",
"          I.l.N.K.W.U.).l.y m K q k k h 2 & e : : : : $ 2 M q h : l E l u ^ W.E.U.K.G.l.v.          ",
"          `.#.| z.c.j.j.{ c C k q ,.M h , , < = : : : : + 2 k K l M <.j y f d.l.l.j.a.} K.          ",
"          `.#.] #.o.} } / 9 j M >.M : h Z , q = : : : : : q q 2 W 7.E e 8 a } } o.#.| ' U.          ",
"           XG.f.l.l.l.Z.%.6 6 K ,.+ + q Y K : = : : = = 2 2 q 2 z R M e 5 / Z.l.l.l.h.B.`.          ",
"          F././.~.^./.'.N.6 6 k K M E k k M < = : : = = q 2 2 K R K M e 3 ` '././.^.U.~.K.          ",
"          ( z.n.b.b.l.z.o.% % - e Z Q t - % % % % % % % % % % Z H e e - % D l.l.c.b.z.z.|           ",
"          } l.z.c.z.d.s.} a S g g f d g f S S S S S S S A A A d d f S D a ^ a.a.l.l.z.c.#.          ",
"          } %...} } } } ] } l.z.p.a.#.#.%.l.d.%.a.a.p.p.p.a.s.O.%.s.a.a.#.] } | ..} } %.O.          ",
"          ] } } +.+.+.%.+.%.c.b.z.b.%.#.c.Z.Z.v.c.z.v.v.v.c.d.#.p.z.c.d.p.| } #.#.#.#.%...          ",
"          ] a.G.W.U.U.b.U.T.U.U.U.K.a.j.U.`.`.`.W.U._.(.`./.K.p.f.U.~.U.U.K.B.z.z.c.z.l.#.          ",
"          ] v.}.|.}.|.[.].|.].].|./.d.c.W._./.`.].].].]..X.X|.V.c.`.`.{.|.|.|.[.`.`./.W.s.          ",
"          %.z.G.G.G.G.K.G.G.G.G.G.H.l.z.z.l.l.V.G.G.G.G.G.G.K.B.l.z.l.Z.L.G.G.K.K.K.G.U.l.          "
};
