/* XPM */
static char *Door5[] = {
/* columns rows colors chars-per-pixel */
"50 50 175 2 ",
"   c None",
".  c #000501",
"X  c #0E0400",
"o  c #050904",
"O  c #0A0906",
"+  c #0E0C0A",
"@  c #150100",
"#  c #1C0700",
"$  c #110801",
"%  c #1F0D04",
"&  c #120F0C",
"*  c #0E130D",
"=  c #1D1007",
"-  c #14110F",
";  c #1C130C",
":  c #151210",
">  c #191614",
",  c #151B15",
"<  c #1B1915",
"1  c #1B1D1A",
"2  c #201007",
"3  c #21150D",
"4  c #25190F",
"5  c #2B170D",
"6  c #231B13",
"7  c #2B1E16",
"8  c #231E1B",
"9  c #2A1F19",
"0  c #311E12",
"q  c #1C221C",
"w  c #23211D",
"e  c #2D221B",
"r  c #27281A",
"t  c #322117",
"y  c #31241D",
"u  c #1B1E22",
"i  c #1D2322",
"p  c #1B232C",
"a  c #1B2531",
"s  c #1E2A35",
"d  c #1E2C3B",
"f  c #1F313E",
"g  c #242423",
"h  c #2B2523",
"j  c #252A23",
"k  c #2E2A24",
"l  c #292728",
"z  c #2C2B2B",
"x  c #262B28",
"c  c #332720",
"v  c #332923",
"b  c #392B24",
"n  c #332D2A",
"m  c #283027",
"M  c #2B322B",
"N  c #34342D",
"B  c #3B322D",
"V  c #212C37",
"C  c #212D39",
"Z  c #22303D",
"A  c #323432",
"S  c #3D3532",
"D  c #373933",
"F  c #3B3B35",
"G  c #3B3D3B",
"H  c #42362F",
"J  c #423935",
"K  c #453C38",
"L  c #433630",
"P  c #3F413C",
"I  c #364336",
"U  c #43433C",
"Y  c #223444",
"T  c #223749",
"R  c #243A4D",
"E  c #243D51",
"W  c #293D52",
"Q  c #3F4340",
"!  c #244057",
"~  c #294156",
"^  c #274158",
"/  c #2B455C",
"(  c #2E495E",
")  c #30495E",
"_  c #2B4762",
"`  c #2E4B65",
"'  c #2D4D6A",
"]  c #314C65",
"[  c #304E69",
"{  c #2F516E",
"}  c #31516D",
"|  c #2F5373",
" . c #325573",
".. c #325877",
"X. c #305678",
"o. c #335B7C",
"O. c #385E7E",
"+. c #424443",
"@. c #484947",
"#. c #494749",
"$. c #474948",
"%. c #4B4C4B",
"&. c #495948",
"*. c #4F4F50",
"=. c #4F5050",
"-. c #545455",
";. c #575758",
":. c #595C5B",
">. c #605F60",
",. c #636363",
"<. c #6A6A6B",
"1. c #7C7C7C",
"2. c #345E81",
"3. c #366184",
"4. c #396385",
"5. c #36648A",
"6. c #39668A",
"7. c #3B698D",
"8. c #376A93",
"9. c #3B6C93",
"0. c #3A6F99",
"q. c #3F7196",
"w. c #3C729D",
"e. c #3C75A2",
"r. c #3D79A6",
"t. c #3D7CAB",
"y. c #426F92",
"u. c #447295",
"i. c #41749B",
"p. c #46799F",
"a. c #447BA5",
"s. c #4A7EA5",
"d. c #437EAB",
"f. c #4481AF",
"g. c #4A82AC",
"h. c #4B80A5",
"j. c #4383B4",
"k. c #4B86B1",
"l. c #4B87B2",
"z. c #4D89B3",
"x. c #4387BA",
"c. c #458BBE",
"v. c #4388BC",
"b. c #4C8CBB",
"n. c #518AB3",
"m. c #4E90BF",
"M. c #5191BF",
"N. c #5291BE",
"B. c #468DC1",
"V. c #468CC1",
"C. c #4B8FC1",
"Z. c #4F91C0",
"A. c #4E92C2",
"S. c #4C95CA",
"D. c #5293C2",
"F. c #5194C4",
"G. c #5197C9",
"H. c #539ACB",
"J. c #5A9FCE",
"K. c #539DD3",
"L. c #5AA0CF",
"P. c #57A0D3",
"I. c #5CA3D3",
"U. c #58A3D9",
"Y. c #60A6D6",
"T. c #63ABDB",
"R. c #68AEDC",
"E. c #6AB2DF",
"W. c #5AAAE3",
"Q. c #64AFE1",
"!. c #67B0E0",
"~. c #6BB4E3",
"^. c #71B6E0",
"/. c #72B9E4",
"(. c #8A8A8B",
/* pixels */
"                                              } {  . .                                              ",
"                                        ` ` 3.t.5.e.t.5.' /                                         ",
"                                    ~ 5.t.e.v.H.u.n.G.C.r.t.8./                                     ",
"                                W W 5.S.Z.G.k.G.u.7.k.k.G.Z.S.q./ W                                 ",
"                              ' 8.3.p.M.p.q.4... ._ | 3.p.q.z.a.h.a.`                               ",
"                          W 2.t.S.G.6.| 5... . ... . . ...5.X...M.H.t.3.~                           ",
"                        W 2.v.H.k.8.2.`  ...3. ._ /  .3... .` ..6.g.H.v.5.W                         ",
"                      W ..v.b.a.3.....' } / Y C < < s Y ~ { '  ...2.a.b.V.5.~                       ",
"                      | V.G.p.| 4. .p < i < ; ; e e < ; < u u u ` 6. .8.G.S...                      ",
"                    ) b.G.8.....E u 4 y v c S J J J J J v v y 4 u R ....7.Z.C.[                     ",
"                  / } p.p...3.R ; 7 J K J h h 8 8 8 < h v S K K y = Y 2...8.p. ./                   ",
"                  e.j.} ..8.Y 3 H n h h > - & + + + + & - - h h v L 6 s 6.3.} s.t._                 ",
"                ..j.H.7. .R ; B B > + + & - - - - - - - - - + O - n H = Y  .4.G.V.3.                ",
"                5.b.g.2.` > b S > + > > - > - - - - - - > > > > & + n B ; ^ 2.p.Z.e.                ",
"              s | b.a...Y - B > O - > > > > > > - > - - > > > > - - < S ; a ..6.G.e.s               ",
"            z.q./ s.a...Y 7 B 8 * > - > > > > > > > - - - > > - + g F h 7 s ..q.H...6.z.            ",
"            3.U...p.k...Y b B < q < & - - - > > > > - - - - - > q + i F b s ..a.z...H.8.            ",
"             .3.} 4.4.' Y c > P +.* > & - - > > > > - - - - - > x < > P y s { 4.4.] 3. .            ",
"            / ..7.3.5.0.T v 6 %.%.* < & - - - - > > - - > > - > q m G F v s  . ...8.8.2.            ",
"            ` ..2. . .2.Y 9 < D ,.* + > - - - - > > - - > > > - O n D B 7 s  .}  ...3. .            ",
"                / } ` } T 6 w o +.A O - > > - - > > > > > > - O A #.+ F 3 s  .` } ` W               ",
"                ..4.`  .R 6 8 . G +.< & > > > > > > > > > > + > ,.>.x k 6 C  . .6.4.                ",
"                3.e.6...R y & $.1.g l < & > > > > > - > - - O g ;.<.+.x e Z  ...e.g.                ",
"                8.j.s.3.R v 6 %.(.G g < & > > > - > - - - - - > %.;.q F c s ....r.M.                ",
"                8.V.s. .Y c k o ;.:.g < & - - > - - > > > & > w ;.;.. F y s } 5.j.s.                ",
"                3.x.8. .T e n g %.%.g < & - - > - - > - > & > g %.%.g F e s } 6.x.0.                ",
"                3.t.5. .R 6 h <.=.l A < & - > > - - - - - & < l G m G U 3 C } 5.t.q.                ",
"                3.t.5. .T y n ;.G > g > & - > > - - - - > & > g g g Q U y s { 3.j.q.                ",
"                2.Z.7. .E e w +.G o - > > > > > > > > > > > & < O A :.B 7 C  ...x.q.                ",
"                ..P.y...E b e A ;.A > & - - > > - > > > > > & g l *.+.D c Z ....j.q.                ",
"                ..S.8. .R y w G <.A < & - - - - > - > > - & > w %.;.q U e C X.2.v.q.                ",
"                7.r. . .T y h q ;.+.g - - - - - - - > - - - > > =.%., U y s }  .r.t.                ",
"                8.8.[ ..R v B , A +.g - - > > > - - - - > > + g ;.g q U y s ..} 8.q.                ",
"              ~ ` [ / ' Y y k q < +.l - - > > > - - - - > - O l <.x x F e V ` / ` ` W               ",
"              } 8.6...q.| 7 h < q G l - - > > > > - - - > > + A %.x m B 5 ~ s.6.6.7.8.'             ",
"              O.P.K.M.P.7.3 w < , < l - - > > > > - - - > > & l < , m A % / U.G.G.H.G.`             ",
"            u.2.'  .| 2.E 6 8 < , < 8 & - > - > > > - - - - & l q q m N 3 s | | | | ' ]             ",
"            M.H.s.s.z.H...y v , q < > - - - - > > > - - - - - > < q i P 5 ( K.k.k.k.b.H.            ",
"          x.8.u.k.Z.b.K.3.t B q q q > - - - - - > > > - - - > - q < , U 0 ~ G.C.b.k.g.8.t.          ",
"          H.'  .q.e.8.8.! y n q q q > & > > - - > > > - - - - > < x m G y f 8.8.8.8.2.' G.          ",
"          H.' _  .{ ` ' Y 8 h g q w > & > > > - - - - - > > - > < m &.F 6 s ' ` {  .` _ Z.          ",
"          T.a.6.8.8.8.s.{ 3 h x < q < & > > > > - - - - > > - > q q m B % R f.8.8.8.7.a.T.          ",
"          g.H.H.G.H.H.W.4.2 w x < > > > > > > > - > - - > > - > > m I B # ( W.H.H.G.b.G.z.          ",
"          / e.t.t.r.0.q./ # ; 6 & # # # # # # # # # $ O # # # # O 6 r < $ Y e.0.r.t.q.8.`           ",
"          [ q.q.e.0.6.6./ p Z V C C Z Z C C C C C C C C C C C Z Z a p Z p R 6.3.8.q.e.q. .          ",
"          ' 2.[ ` ` ` ` / } 0.0.2.4. ...2.8.5...3.3.2.2.2.3.4.} ..5.4.3. ./ ` [ [ ` ` ..[           ",
"          / ` ` | { | ..| 2.r.t.q.t... .e.d.t.a.q.q.r.r.r.e.5. .3.q.e.5.2.' `  . . . ...'           ",
"          ` 6.k.Z.Z.b.t.b.b.b.b.b.t.5.8.b.P.P.P.Z.m.P.J.P.H.f...7.b.G.b.b.g.q.q.e.e.q.0. .          ",
"          ` j.Q.!.!.!.P.E.!.T.T.!.G.5.t.G.L.H.Y.T.T.T.R.^./.!.q.s.P.P.!.!.!.!.T.P.P.H.Z...          ",
"          2.e.g.g.g.g.k.g.g.g.g.k.a.8.q.q.0.8.s.g.g.g.g.g.g.k.p.0.0.q.g.n.g.k.z.k.k.g.b.7.          "
};
