/* XPM */
static char *Door2[] = {
/* columns rows colors chars-per-pixel */
"50 50 192 2 ",
"   c None",
".  c #010201",
"X  c #090304",
"o  c #0C0D0B",
"O  c #070806",
"+  c #110E0D",
"@  c #1A0902",
"#  c #0D120D",
"$  c #1E1007",
"%  c #12130E",
"&  c #1C130C",
"*  c #131513",
"=  c #161A16",
"-  c #1B1A15",
";  c #1B1C1A",
":  c #1E1610",
">  c #21150C",
",  c #29190E",
"<  c #231912",
"1  c #2A1E16",
"2  c #231D1C",
"3  c #2A1F19",
"4  c #331F13",
"5  c #1D221C",
"6  c #162015",
"7  c #23221E",
"8  c #2E221B",
"9  c #27261B",
"0  c #31241D",
"q  c #34241B",
"w  c #1B1E22",
"e  c #201D20",
"r  c #1C2323",
"t  c #1C232B",
"y  c #1B2534",
"u  c #1E2A35",
"i  c #1E2C3A",
"p  c #1B2739",
"a  c #1F313E",
"s  c #232521",
"d  c #2B2423",
"f  c #252B24",
"g  c #292B26",
"h  c #2D2C2A",
"j  c #322722",
"k  c #342923",
"l  c #3A2B23",
"z  c #332C2A",
"x  c #283227",
"c  c #2C332B",
"v  c #2F392E",
"b  c #3C322D",
"n  c #333C2D",
"m  c #383E2D",
"M  c #31342B",
"N  c #212D39",
"B  c #202C36",
"V  c #312F31",
"C  c #22313D",
"Z  c #2F3A30",
"A  c #333333",
"S  c #343C32",
"D  c #3B3D3A",
"F  c #3B3834",
"G  c #42362F",
"H  c #423935",
"J  c #423732",
"K  c #364234",
"L  c #3A4335",
"P  c #3C443B",
"I  c #3C4A3C",
"U  c #39402E",
"Y  c #40443E",
"T  c #414E3F",
"R  c #223444",
"E  c #223749",
"W  c #243A4D",
"Q  c #243D51",
"!  c #293D52",
"~  c #423F42",
"^  c #294155",
"/  c #2B455C",
"(  c #28435A",
")  c #30495E",
"_  c #2B4762",
"`  c #2E4B65",
"'  c #2D4D6A",
"]  c #304E69",
"[  c #314C65",
"{  c #2F516E",
"}  c #31516D",
"|  c #2F5373",
" . c #325573",
".. c #325877",
"X. c #335B7C",
"o. c #345A7B",
"O. c #444342",
"+. c #4D4D4C",
"@. c #474A46",
"#. c #514F4F",
"$. c #435342",
"%. c #495746",
"&. c #4D524D",
"*. c #4A5B48",
"=. c #51524E",
"-. c #535453",
";. c #5C5C5B",
":. c #575755",
">. c #615E5E",
",. c #4F604D",
"<. c #5D615D",
"1. c #566254",
"2. c #5F5F60",
"3. c #626363",
"4. c #6B6B6B",
"5. c #656C63",
"6. c #6C706B",
"7. c #6F786E",
"8. c #737373",
"9. c #7B7B7C",
"0. c #767876",
"q. c #345E81",
"w. c #366185",
"e. c #396385",
"r. c #36658B",
"t. c #39668A",
"y. c #3B698D",
"u. c #376A93",
"i. c #3B6C93",
"p. c #3B6F99",
"a. c #3C729D",
"s. c #3F7196",
"d. c #3C75A2",
"f. c #3D79A6",
"g. c #3D7CAB",
"h. c #426F92",
"j. c #447295",
"k. c #41749B",
"l. c #46799F",
"z. c #447BA5",
"x. c #4A7EA5",
"c. c #437EAB",
"v. c #817F81",
"b. c #4A82AC",
"n. c #4680AB",
"m. c #4383B4",
"M. c #4B86B1",
"N. c #4D89B3",
"B. c #4387BA",
"V. c #448ABD",
"C. c #4C8CBB",
"Z. c #518AB3",
"A. c #4E90BF",
"S. c #5191BE",
"D. c #468DC1",
"F. c #4B8FC1",
"G. c #4E91C2",
"H. c #4C95CA",
"J. c #5194C4",
"K. c #539ACB",
"L. c #5499CB",
"P. c #539DD3",
"I. c #5AA0CF",
"U. c #5CA3D3",
"Y. c #57A2D6",
"T. c #63ABDB",
"R. c #64AAD9",
"E. c #6AB2DF",
"W. c #5AAAE3",
"Q. c #64AFE1",
"!. c #6BB4E3",
"~. c #67B0E0",
"^. c #72B8E2",
"/. c #838484",
"(. c #8B8B8B",
"). c #868F85",
"_. c #949494",
"`. c #9B9B9B",
"'. c #999798",
"]. c #A3A3A4",
"[. c #ACACAC",
"{. c #A9A7AA",
"}. c #B4B3B5",
"|. c #BCBCBC",
" X c #BFBFC0",
".X c #C0BFC0",
"XX c #C3C2C3",
"oX c #CBCACC",
"OX c #D7D7D7",
"+X c #DBDBDC",
"@X c #E8E8E8",
"#X c #F3F2F4",
/* pixels */
"                                              } {  . .                                              ",
"                                        ` ` w.g.r.d.g.r.' /                                         ",
"                                    ^ r.g.d.B.L.j.Z.L.F.f.g.u./                                     ",
"                                ! ! r.H.G.J.M.J.j.y.M.M.J.G.H.s./ !                                 ",
"                              ' u.w.l.S.l.s.e... ._ | w.l.s.N.z.b.z.`                               ",
"                          ! q.g.H.J.t.| r... . ... . . ...r.....S.L.g.w.^                           ",
"                        ! q.B.L.M.u.q.`  ...w. ._ /  .w... .` ..t.b.L.B.r.!                         ",
"                      ! ..B.C.z.w.....' } / R N - - u R ^ { '  ...q.z.C.D.r.^                       ",
"                      | D.J.l.| e. .t - r - & : 8 8 : & : w w w ` t. .u.S.H...                      ",
"                    ) C.J.u.....Q w , 0 j d F H H H H H j j 0 , w W ....y.G.G.}                     ",
"                  / } l.l...w.W & 8 H H F d 7 2 2 2 - d d z J H 0 $ R q...u.l. ./                   ",
"                  d.m.} ..u.R > G z 2 7 f f f & o o o o f c 7 d d J < p t.w.} x.g._                 ",
"                ..m.L.y. .W & b b . - <.%.f = = : & * o f ;.-.# . z G $ R  .e.J.D.w.                ",
"                r.C.b.q.` * l b + 5 9./.5 o : 5 : + * - . D '.<.f o z b : ( q.l.G.d.                ",
"              p | C.z...R & b - = 5.'.h . s s s : + * f 5 # 3.{.6.6 - F & y ..t.J.d.p               ",
"            N.s./ x.z...R 3 d 5 P 0.D O s f s 5 : + = s f * o +.9.P = d 8 u ..s.L...t.N.            ",
"            w.Y...l.M.q.R l z f P A = o : s f f : o s f 5 * o . A Y r d l u ..z.N...L.u.            ",
"             .w.} e.t.' R 8 j v f . 4.:.. c g s : + - f f g v.A . S S g 0 u { e.e.[ w. .            ",
"            / ..y.r.w.p.E 0 z S c O 0.;.O & f h - o f c # o (.4.o K I d j u  . ...u.u.q.            ",
"            ` ..q. . .q.R 1 2 $.T . - :./.. . . o * * . . A P O.. v I 7 1 u  .}  ...w. .            ",
"                / } ` } E < 2 I n - * <.oX/.h g 7 & o g 9.'.5 . * c I 2 > u  .` } ` !               ",
"                ..e.`  .W < s c o ;.@.5 '.@XOXoX#.. +.XX@X0.. /.4.6 *.- < N  . .t.e.                ",
"                w.d.t...W 8 d K f h 4.3./.'.@X@XO.. ;.oX|.0.0.OXV 5 $.2 8 C  ...d.b.                ",
"                u.m.x.w.W j j $.K . 9.|.9.0.[. XO.. 3.]./.(.|.@.. f Z h l p ....f.S.                ",
"                u.D.x. .R 8 d I 1.o c /.'./.0.'.+.. 3.(.9.'.4.. & @.c v 0 u } r.m.x.                ",
"                w.B.u. .E 8 d K ).A o (.}.|.[.'.O.. ;.{.XX.X+.. S 0.c d 0 u } t.B.p.                ",
"                w.g.r. .W 1 2 K 7.~ c 0.'.].OXOXY . 8.#XOX(.;.# D 6.f 2 1 N } r.g.s.                ",
"                w.g.r. .E j d I $.e ;.;.- # A [.;.. 0.4.o s 9.F s P f h q u { w.m.s.                ",
"                q.G.y. .Q 8 s I S . 4.}.s . . 4.>.. 2.* . %.|.;.- c I s 8 N  ...B.s.                ",
"                ..I.h...Q j z c f . #.|.'.3.3.].:.. 3.9.4.XX].+.o v $.d l C ....m.s.                ",
"                ..H.u. .W 8 d I n = :.9.(.(./.@X3.. 4.'.'.'.0.c * S $.s 0 p ..q.B.s.                ",
"                y.f. . .E 0 d $.K s 7 O.4.:././.A . O.'.3.:.g * f c S d 0 p }  .f.g.                ",
"                u.u.] ..W j z K v s 5 & * P '.+.- . A ].=.. & f s 5 c z j u ..} u.s.                ",
"              ^ ` ] / ' R 0 d f s f S = . ;./.'.+.. ;.'.3.# f c s 5 c d 0 B ` / ` ` !               ",
"              } u.t...s.| 1 d c s s c = D 0.3.(.>.. +.9./.:.= c 7 x I 2 , ^ x.t.t.y.u.'             ",
"              X.I.P.S.Y.y.> 2 P n * f f : # ;.'.:.. :./.s - f f - c $.2 $ / Y.J.J.L.J.`             ",
"            j.q.'  .| q.Q < 2 S f = f v 7 o 4.}.:.. 3.'.- = c f 5 5 c s > p  . .| | ' [             ",
"            S.L.x.x.N.L...1 z S f = - 5 5 D ;.:.#.. - 0.;.& - - - 5 c h , / P.M.M.M.C.L.            ",
"          B.u.j.M.G.C.P.w.8 j $.L O 5 f 7 f - x n X * s c 5 x - o c I h 4 ^ L.F.C.M.b.u.g.          ",
"          L.'  .s.d.u.u.^ 0 d I c - K f g - . $.L . c * = s $.I o c $.d 0 a u.u.u.u.q.' J.          ",
"          L.' _  .{ ` ' R 2 d c L %.c = - c * I L X f = x - - $.$.K K 2 1 u ' ` {  .` _ G.          ",
"          T.z.t.u.u.u.x.{ > 7 f %.L * = * s I ,.S . c *.f * * - P P f 7 > W n.u.u.u.y.z.T.          ",
"          b.L.L.L.L.L.W.e.$ 7 f S K K K K v K ,.L . c %.S x n K K S c 2 $ ) W.L.L.J.C.J.N.          ",
"          / d.g.g.f.p.s./ @ $ : : g L m U m : M 0 . : 7 n n n m 7 7 : & @ R d.p.f.g.s.u.`           ",
"          ] s.s.d.p.t.t./ t C N p u p p y y N N N N N N y p p p p p N C t W t.w.u.s.d.s. .          ",
"          ' q.] ` ` ` ` / } p.p.q.q. .....t.w...q.e.q.....q.w.} ..e.w.e. ./ ` ] ] ` ` ..]           ",
"          / ` ` | { | ..| q.f.g.s.g... .d.c.g.z.s.s.z.f.f.d.r. .w.s.d.r.q.' `  . . . ...'           ",
"          ` t.M.G.G.C.g.C.C.C.C.C.g.r.u.C.Y.Y.Y.G.A.Y.P.Y.L.n...y.C.J.C.C.b.s.s.d.d.s.p. .          ",
"          ` m.Q.~.~.~.Y.E.~.T.T.~.J.r.g.J.I.L.R.T.T.T.E.^.^.~.s.x.Y.Y.~.~.~.~.T.Y.Y.L.G...          ",
"          q.d.b.b.b.b.M.b.b.b.b.M.z.u.s.s.p.u.x.b.b.b.b.b.b.M.l.p.p.s.b.Z.b.M.N.M.M.b.C.y.          "
};
