/* XPM */
static char *Door6[] = {
/* columns rows colors chars-per-pixel */
"50 50 168 2 ",
"   c None",
".  c #0E0701",
"X  c #090A06",
"o  c #0D0C0A",
"O  c #020402",
"+  c #180600",
"@  c #120902",
"#  c #190F07",
"$  c #120E0C",
"%  c #1F1106",
"&  c #14110E",
"*  c #1C130C",
"=  c #151210",
"-  c #1A1613",
";  c #151915",
":  c #191916",
">  c #1C1C1A",
",  c #200E02",
"<  c #211005",
"1  c #21130B",
"2  c #25190F",
"3  c #211711",
"4  c #231A14",
"5  c #2A1C13",
"6  c #231E1B",
"7  c #291F1A",
"8  c #331F14",
"9  c #172118",
"0  c #1D221D",
"q  c #25221D",
"w  c #2C221D",
"e  c #33251E",
"r  c #38271F",
"t  c #1A1E22",
"y  c #1B2025",
"u  c #1D252D",
"i  c #1F282F",
"p  c #1D2732",
"a  c #1E2933",
"s  c #1F2E3C",
"d  c #232522",
"f  c #2C2623",
"g  c #242A24",
"h  c #2A2924",
"j  c #2B2D29",
"k  c #312722",
"l  c #342924",
"z  c #3B2D26",
"x  c #332D2B",
"c  c #382F2C",
"v  c #2D332C",
"b  c #32342C",
"n  c #3D332E",
"m  c #212B35",
"M  c #212D39",
"N  c #21303D",
"B  c #343433",
"V  c #3C3431",
"C  c #353833",
"Z  c #3A3B34",
"A  c #363738",
"S  c #3B3D3B",
"D  c #41342D",
"F  c #423934",
"G  c #463D38",
"H  c #384637",
"J  c #3E443B",
"K  c #42423E",
"L  c #233545",
"P  c #223649",
"I  c #243A4C",
"U  c #293C4E",
"Y  c #253D52",
"T  c #293E52",
"R  c #413F40",
"E  c #3F4340",
"W  c #254057",
"Q  c #2B4155",
"!  c #26425A",
"~  c #2B445C",
"^  c #274661",
"/  c #2B4660",
"(  c #2E4B64",
")  c #2E4E6A",
"_  c #304F6A",
"`  c #304C64",
"'  c #2F506D",
"]  c #31516D",
"[  c #2E5272",
"{  c #325573",
"}  c #335877",
"|  c #315779",
" . c #345B7C",
".. c #395F7D",
"X. c #424343",
"o. c #454845",
"O. c #4B4B4B",
"+. c #4C4C46",
"@. c #4E534F",
"#. c #4F4F50",
"$. c #4F5051",
"%. c #515252",
"&. c #5E5E60",
"*. c #5E6060",
"=. c #656466",
"-. c #355F81",
";. c #366184",
":. c #396385",
">. c #36658B",
",. c #39668A",
"<. c #37688E",
"1. c #3A6A8E",
"2. c #376991",
"3. c #3B6C93",
"4. c #3A6F99",
"5. c #3F7096",
"6. c #3C729C",
"7. c #3B75A2",
"8. c #3F79A6",
"9. c #3E7BAB",
"0. c #3E7EB0",
"q. c #406B8D",
"w. c #426F91",
"e. c #437294",
"r. c #42759C",
"t. c #447AA4",
"y. c #487CA0",
"u. c #437EAB",
"i. c #497FA9",
"p. c #407FB0",
"a. c #3D80B4",
"s. c #4C80A6",
"d. c #4780AA",
"f. c #4A83AC",
"g. c #4282B3",
"h. c #4B86B2",
"j. c #4D89B4",
"k. c #4185B8",
"l. c #4489BC",
"z. c #4C8CBB",
"x. c #528BB3",
"c. c #518FBD",
"v. c #5191BE",
"b. c #478EC2",
"n. c #4C8FC0",
"m. c #4A91C6",
"M. c #4D92C3",
"N. c #4C95CA",
"B. c #5192C1",
"V. c #5295C4",
"C. c #5295C4",
"Z. c #5297C9",
"A. c #539ACC",
"S. c #589DCD",
"D. c #539CD1",
"F. c #5BA0CF",
"G. c #5DA3D4",
"H. c #57A4DB",
"J. c #59A7DF",
"K. c #60A6D4",
"L. c #66ABD7",
"P. c #65ACDC",
"I. c #6AB1DF",
"U. c #64AEE0",
"Y. c #6CB5E4",
"T. c #64B0E2",
"R. c #71B5E0",
"E. c #72B8E3",
/* pixels */
"                                              ' ] ' }                                               ",
"                                        ( ~  .0.>.4.a.2.] ~                                         ",
"                                    T ;.9.7.l.D.1.f.A.M.9.9.4.~                                     ",
"                                  T  .M.C.C.h.C.e.:.h.h.C.M.N.7./ T                                 ",
"                              ( 2.>.r.C.r.5.,. . .( [ -.5.5.h.f.y.t.)                               ",
"                          T  .7.M.C.q.} ;. .} }  .} } }  .;. . .x.D.9.>.~                           ",
"                        U  .k.Z.h.4.-.) }  .;. .( ~ } ;. .} _ } >.i.A.b.2.Q                         ",
"                        } k.M.i.;. . .) } ~ L N : - p P Y ) ) }  . .r.z.b.2.~                       ",
"                      ) l.C.r.| ;. .u : y : 1 * w w 3 * 3 t y : ~ ,.} 1.c.N.>.                      ",
"                    Q h.Z.r. .-.W u 2 w l l V F F F F F l l e 2 : P } -.,.z.M.]                     ",
"                  ~ ) r.t. .;.Y * 5 F G F h f 7 7 7 : f f V G G l % M  . .4.r.} ~                   ",
"                  4.l.}  .4.U - D x f f = $ & o o o o $ & & q h f F 5 p ;.,.] t.h.(                 ",
"                } 9.A.5.} Q * z V = o o $ = & = = = = & = & o o o x F * N }  .C.M.>.                ",
"                >.z.f.-.] t e V & o = = = = = = = = = = = = = = $ o x D * Y  .r.z.9.~               ",
"              p ) h.t. .U & n 7 o = = = = = = = = = = = = = = = = $ $ n 3 u } :.v.9.P               ",
"            h.r.~ r.i. .U 7 l h : & = = = = = = = = = = = = = = = o : x w u } 4.A.;.;.h.f.          ",
"             .H.-.w.z. .U l x 0 d = & = = = = = = = = = = = = = = & g Z z u } t.v.} v.5.            ",
"            } ;.] ..:.) U f f = g : & = = = = = = = = = = = = $ & S S b k u ) -.:.(  .} ~           ",
"            ~ } 1.>.;.4.Y l c O ; d & = = = = = = = = = = = = $ & j J B z u } }  .4.2.;.            ",
"               .-.} } -.Y q 7 d g o = = = = = = = = = = = = = & X C o.v 7 u } } ]  .;.}             ",
"                ~ ] ( _ Y 3 - B O.X $ = = = = = = = = = = = = $ - =.X.h 3 u ] ( ] ( Q               ",
"                } ,.) } Y 3 - K #.d - $ = = = = = = = = = = & & d &.E q 5 p ] } ,.,.(               ",
"                ;.7.,. .Y w 3 O.O.d : $ = = = = = = = = = = & & q X.S h e M }  .5.h.]               ",
"                <.h.s.:.Y k f O.$.: : $ = = = = = = = = = = & $ 7 S S b z u }  .5.C.]               ",
"                >.l.f.} U w k S X.d : $ = = = = = = = = = = & - d %.E j l u ) >.h.h._               ",
"                 .h.5.} Y w f B B f : $ = = = = = = = = = = $ : g %.*.Z w u ( >.k.7.(               ",
"                 .8.<.} Y q q B A j : $ = = = = = = = = = = & = f B O.S 3 p ) >.9.8.(               ",
"                 .9.>.} Y k l B v d : & = = = = = = = = = = = $ = ; X.+.e u ( ;.i.8.(               ",
"                | M.4.} ! w w R 0 X = = = = = = = = = = = = = $ & o v J w p }  .h.9.(               ",
"                [ A.e.| ! l l d d o & = = = = = = = = = = = & $ x X.g Z z p  .-.h.9.(               ",
"                } M.5.} ! w f B S : $ = = = = = = = = = = = & = d =.@.b e u } -.h.9.(               ",
"                ;.9.} ] Y f 7 O.%.= $ = = = = = = = = = = = & $ d O.C Z e p ) } 5.0.(               ",
"                1.5._  .Y l f B O.o $ = = = = = = = = = = = = $ : ; 9 K z u } ] ,.8.(               ",
"              Q ( ] ~ ( U f 7 j O.: $ = = = = = = = = = = = = $ : g v Z e i ( ~ ( ) T               ",
"              ) 4.,.-.4. .w 7 q g : & = = = = = = = = = = = = $ : $.v b 5 U i.1.,.,.4._             ",
"              } A.D.C.A.r.3 3 d 0 - = = = = = = = = = = = = = $ 7 d d C < U D.C.C.C.C.)             ",
"            e.:.( } }  .! 3 3 d d 7 = = = & & & = = = = = = = $ : g g b 3 p [ [ [ [ ) `             ",
"            v.S.i.t.h.A.1.w k : 0 : = = = & = & = = = = = = = & = 0 0 Z 8 T A.h.h.h.h.S.            ",
"          l.4.e.h.M.z.D.4.k l = g : & = = = & & = = = = = = = & & 0 g Z e U M.n.z.h.f.4.8.          ",
"          G.} ) 5.7.2.2.^ l l : g : & = = = = = = = = = = = = & o v H Z r p >.4.4.2.;.( h.          ",
"          G.} ~ } ' ( ( L 7 w g g : $ & & = = = = = = = = = = & $ : J J 3 u ( ( ' } ) ! z.          ",
"          T.f.,.4.4.4.i. .3 7 g d ; & = & = = = = = = = = = = & = = g Z 1 L i.4.4.4.1.r.G.          ",
"          s.A.A.C.Z.A.J.e.3 7 : = & = = = = = = = = = = = = = & = $ : b , Q H.A.A.Z.z.C.h.          ",
"          Y 5.0.9.9.4.5.' # # # # # # # # # # # # # @ @ @ @ # # # # . & + N 4.4.7.9.5.5.)           ",
"          ( 4.5.7.5.,.:.( u M p M M M N M M M M M M M M M M M N M M M s u U ;.;.4.4.5.7.}           ",
"          (  ._ ( ( ( ( ~ ( 4.5.-.:.} } -.4.>. .;.;.-.-.-.;.:.]  .:.:.:.} ~ ( ) _ ( (  .]           ",
"          ~ ( ( [ [ [  .[  .7.9.5.9. .} 7.p.i.8.5.5.8.8.8.7.>.} -.5.7.>.-.) ( } } } }  ._           ",
"          ~ ;.f.M.z.z.9.z.z.z.z.z.h.;.2.z.G.G.G.M.z.S.S.G.A.h.-.>.z.C.z.z.h.r.5.5.7.5.4.}           ",
"          ~ 8.U.Y.U.Y.K.P.Y.P.P.Y.A.>.7.M.F.A.G.P.P.P.P.R.E.Y.t.7.G.G.I.Y.Y.Y.L.G.G.A.M.:.          ",
"           .5.f.f.f.f.h.f.f.f.f.f.d.4.5.5.4.4.t.f.f.f.f.f.f.h.r.4.5.4.i.x.f.f.h.h.h.f.z.4.          "
};
