/* XPM */
static char *Door1[] = {
/* columns rows colors chars-per-pixel */
"50 50 193 2 ",
"   c None",
".  c #010101",
"X  c #060905",
"o  c #090E07",
"O  c #0B0C0B",
"+  c #090606",
"@  c #190802",
"#  c #0D100C",
"$  c #12120E",
"%  c #1B130C",
"&  c #1E1107",
"*  c #131512",
"=  c #1C1714",
"-  c #161915",
";  c #1C1B16",
":  c #1A1D1A",
">  c #200D01",
",  c #22150C",
"<  c #24180E",
"1  c #2C190E",
"2  c #211006",
"3  c #241A13",
"4  c #2A1D15",
"5  c #221D1C",
"6  c #221710",
"7  c #301C10",
"8  c #311B0F",
"9  c #1E221D",
"0  c #1A2518",
"q  c #23221E",
"w  c #2D221B",
"e  c #202216",
"r  c #32251C",
"t  c #35251B",
"y  c #1A1E23",
"u  c #201F20",
"i  c #1C252D",
"p  c #1B2127",
"a  c #1B2534",
"s  c #1E2A35",
"d  c #1E2C3A",
"f  c #242522",
"g  c #2B2524",
"h  c #242A23",
"j  c #2A2C26",
"k  c #2B2D2A",
"l  c #272F28",
"z  c #342922",
"x  c #392B24",
"c  c #322C2B",
"v  c #392F2D",
"b  c #2B3125",
"n  c #2C332B",
"m  c #2E392D",
"M  c #30352F",
"N  c #3D322D",
"B  c #343B2D",
"V  c #373427",
"C  c #212E3A",
"Z  c #202D37",
"A  c #2F3530",
"S  c #22313E",
"D  c #2F3B30",
"F  c #333433",
"G  c #3E3330",
"H  c #333D32",
"J  c #3C3B3B",
"K  c #41352E",
"L  c #423731",
"P  c #433A36",
"I  c #354234",
"U  c #394436",
"Y  c #3C453B",
"T  c #3D4B3C",
"R  c #414D3F",
"E  c #404934",
"W  c #1E3141",
"Q  c #223444",
"!  c #243A4D",
"~  c #243748",
"^  c #263F54",
"/  c #293E53",
"(  c #2A4154",
")  c #2B445B",
"_  c #2B465C",
"`  c #2A4661",
"'  c #2E4A64",
"]  c #2E4D6A",
"[  c #314D65",
"{  c #304F6A",
"}  c #2F506E",
"|  c #31516D",
" . c #2E5272",
".. c #2F577A",
"X. c #315573",
"o. c #335877",
"O. c #315778",
"+. c #345B7C",
"@. c #385F7F",
"#. c #444544",
"$. c #444C42",
"%. c #4B4C4B",
"&. c #445442",
"*. c #4C584A",
"=. c #535453",
"-. c #555A54",
";. c #5C5C5C",
":. c #505B4F",
">. c #5F605F",
",. c #626263",
"<. c #666B65",
"1. c #6C6D6D",
"2. c #6D726C",
"3. c #747474",
"4. c #767976",
"5. c #7B7B7B",
"6. c #787778",
"7. c #355E81",
"8. c #366185",
"9. c #396384",
"0. c #36648B",
"q. c #39668A",
"w. c #3A698E",
"e. c #376A92",
"r. c #3B6C94",
"t. c #3A6F99",
"y. c #386790",
"u. c #3F7097",
"i. c #3C729D",
"p. c #3C75A2",
"a. c #3E79A5",
"s. c #3D7BAB",
"d. c #3E7FB0",
"f. c #41749B",
"g. c #46779C",
"h. c #406A8A",
"j. c #7F7F80",
"k. c #447BA3",
"l. c #4A7EA4",
"z. c #437EAB",
"x. c #807F80",
"c. c #4581AC",
"v. c #4A83AC",
"b. c #4484B5",
"n. c #4B86B2",
"m. c #4D89B4",
"M. c #4489BD",
"N. c #4D8DBB",
"B. c #4386BA",
"V. c #518CB6",
"C. c #4E90BF",
"Z. c #5291BE",
"A. c #458CC1",
"S. c #498EC1",
"D. c #4D91C3",
"F. c #4D96CA",
"G. c #5295C4",
"H. c #5399CB",
"J. c #569BCC",
"K. c #539CD2",
"L. c #5BA0CF",
"P. c #56A0D5",
"I. c #5CA3D2",
"U. c #5BA5D9",
"Y. c #53A1D9",
"T. c #64ACDB",
"R. c #63A9D8",
"E. c #6EB4DF",
"W. c #5AAAE3",
"Q. c #67B1E1",
"!. c #6BB4E2",
"~. c #73B8E2",
"^. c #848484",
"/. c #8D8D8D",
"(. c #868E85",
"). c #908F91",
"_. c #939393",
"`. c #9B9B9B",
"'. c #989798",
"]. c #A3A2A3",
"[. c #AAA8AA",
"{. c #A8A7A8",
"}. c #AFAFB0",
"|. c #B4B4B4",
" X c #B9B9B9",
".X c #B8B7B8",
"XX c #BFBFC0",
"oX c #C3C3C3",
"OX c #CBCACB",
"+X c #D8D7D8",
"@X c #ECEBEC",
"#X c #E4E3E4",
"$X c white",
/* pixels */
"                                              | } X.X.                                              ",
"                                        ` ` 8.s.8.p.d.0.` )                                         ",
"                                    ( 0.s.p.S.H.q.m.H.S.p.s.e.)                                     ",
"                                / / 0.F.D.G.n.G.h.q.n.n.G.D.F.e.) (                                 ",
"                              ` t.q.k.N.u.f.8.O.o.`  .9.f.u.m.k.g.c.`                               ",
"                          / 8.s.F.Z.9.X.0.O.X.X.O.X.o.X.O.0.O.9.Z.H.s.0.(                           ",
"                        / 0.M.H.v.r.O.] X.O.8.X.) ) X.8.O.X.` O.q.z.H.A.0./                         ",
"                      ( 8.A.N.k.7.O.O.] } ( ~ s = ; s ~ ^ } ] o.O.O.g.N.A.0.)                       ",
"                      ..D.G.r.X.q.} p : y ; & = w w ; & 3 y y y ` q. .r.Z.F.7.                      ",
"                    [ N.D.w.O.O.~ y < r z j G G N G G G z z r < : ~ O.7.q.C.D.|                     ",
"                  ) | l.u.O.7.~ & w P P v 5 j g j j j g 5 v L P r & S 7.O.r.f.X.`                   ",
"                ` s.c.| 8.q.W 6 L z w 5 f h j H &.h n H n f q g g L 3 d 9.0.| z.d.`                 ",
"                7.M.G.q.X.~ & N v + X Y 2.U : * 9 - O h T <.*.X X v L & ~ X.7.G.S.0.                ",
"                w.N.c.7.) * N v O h -./.=.# * : : - : O X %.).-.h O v L & ^ 7.f.C.s./               ",
"              d O.N.f.O.s & N = - <.[.1.O * h q h : h l # X ,.[.2.9 ; N & i O.q.G.s.~               ",
"            m.r.) v.k.O.s 4 g 9 Y 6.;.# - h h 9 f : 9 h f * O =.6.Y - w w i X.r.H.7.9.m.            ",
"            q.P.O.l.c.O.s x j h Y n O O - 9 h h h 9 h 9 9 - O X A Y h f N a O.k.N.X.G.r.            ",
"            O.8.{ 9.9.} s r j n f X l x.: * n h f : f n - * j.l X H H g r s ] 9.9.[ 7.X.            ",
"            ) O.w.8.0.r.s r v m j O =./.: O - n l 9 l ; # - ^.,.O H T g x a X.X.O.r.e.8.            ",
"            ` O.O.X.X.7.s 4 5 T U X J F 1.=.X X O * X X %.4.l J X n T 5 4 s X.X.X.O.8.X.            ",
"              ( _ | ` | d , 5 T n u X * ].|.;.* : * # =.].{.: X f b T 5 3 s | ` | ` )               ",
"                O.8.` X.C < q n X 1.^.X ;.oX@XoXXX=.[.@X X;.X /.3.0 &.: 3 s | X.q.q.`               ",
"                q.k.9.O.S w q U 9 f }.3.;.^. X$X+X>.@XOX3.<.6.+Xl 9 &.5 r C X.o.u.n.|               ",
"                t.b.v.O.d r g T m X F  X'.3.^.oXoX=.]./.6._. XJ X h m g x s O.O.p.G.|               ",
"                r.S.l.| s r g T :.* X %.`._.3.6.`.;.6.3./.`.1.X $ $.n v r s ] 0.b.c.[               ",
"                q.M.r.| d w f Y (.F X J }.|. X`._.=.^.|.oX|.=.X F 4.A f r s ] 0.B.u.`               ",
"                q.s.8.X.C 4 5 U 4.J X ;.6.]. X+X|.%.OX#X.X6.;.O J 2.h 5 w s ] 8.s.p.`               ",
"                q.d.8.| d r g U $.f l 6.F : # ;.].;.6.f * f 3.M f #.h j z s ] 8.z.p.`               ",
"                0.F.9.O.S 4 f U n * %.{.6.X X * 1.%.q X X 3.|.=.- n Y f w Z X.O.b.p.`               ",
"                8.P.w.O.~ z v n f # #./. X3.=.3.`.-.1.=.^.#X].#.X m &.g x C O.O.b.p.`               ",
"                8.F.q.O.S r g U n - h 1.^./.6.|. X;.`.^.`./.3.h - H &.f r s X.7.B.p.`               ",
"                r.p.X.X.d r f T B f - f >.,.1.^.#.: 6.6.;.;.f $ h l H g r s ] X.p.s.`               ",
"                u.r.{ O.d r v D n f h # * f 6.1.l - 1.^.f * X h f 9 l v x s X.| w.p.`               ",
"              ) ` ` ) ] s r g h f h j n X f 6.6.3.#.6.^.l X n n f 9 n g r s ` ) ` ] /               ",
"              X.r.q.O.u.) 1 f l q f n n - %.6.6.6.%.3.3.=.9 n n f h T 5 1 ( z.q.q.q.r.]             ",
"              9.U.K.N.U.{ @ 5 U n - h j h X F 6.3.#.^.J X h l h : n R 5 > ( P.G.G.H.G.`             ",
"            f.O.] O.X.7.S , 5 n h : h l F X l _.^.%.'.J X M n h 9 9 n f 6 s  . . . .] [             ",
"            G.H.k.k.m.K._ 1 l H h ; - : h X ,.,.*.F =.;.# h : : : 9 n l 7 ) K.n.n.n.N.H.            ",
"          b.r.f.m.D.N.Y.` 8 g T m O h h 9 9 l : U h * j q 9 h - # b T g t ( D.S.N.n.v.r.s.          ",
"          G.] O.u.p.0.r.~ r g T h 9 *.n q h O ; *.H : # h q R U O n &.g r d 0.r.r.e.7.` N.          ",
"          G.] ` X.] ` ] s 3 f l U *.B - : h h * &.B * h n - : &.&.U U 5 4 a ] ` | X.` ` N.          ",
"          T.k.q.r.r.r.b.^ 2 q h *.H O $ : - H $.&.n R H O 9 * 9 Y Y l q , ~ c.r.r.r.w.k.U.          ",
"          n.K.H.G.H.H.W.` @ q h H U j H U B H T &.n R U n n m U H H n 5 > ) W.K.H.F.N.G.m.          ",
"          ` s.s.s.p.r.p.~ @ % ; ; j B B B U b & B e & b E V B B q e ; $ @ ~ p.r.p.s.u.t.]           ",
"          | u.u.p.r.8.q.~ p S C s a d d a a s C C C C a a C d d d C C S i ~ q.8.r.t.p.p.X.          ",
"          { O.[ ` ] ` ` ) | u.u.7.7.X.O.7.y.7.O.7.7.7.7.O.7.7.{ O.9.9.9.X.) ` ] { ` ` O.|           ",
"          ` ` `  . . .o. .8.s.s.u.a.X.O.a.z.a.a.u.u.a.a.a.p.0.X.8.u.p.0.7.] ` X.X.X.X.O.]           ",
"          ` w.n.D.D.b.s.N.N.N.N.N.s.8.e.S.R.I.I.C.N.L.J.I.H.z.O.w.N.G.N.N.v.f.u.u.p.u.t.X.          ",
"          ] b.Q.Q.Q.E.I.!.!.T.T.!.N.0.s.G.L.H.R.T.T.T.T.~.~.Q.t.z.I.I.!.!.!.!.T.I.U.H.D.@.          ",
"          8.a.v.v.v.v.n.v.v.v.v.n.k.e.u.u.t.r.k.v.v.v.v.v.v.v.u.u.t.t.v.m.v.n.m.n.n.v.N.r.          "
};
