/* XPM */
static char *Enemy4[] = {
/* columns rows colors chars-per-pixel */
"50 50 130 2 ",
"   c None",
".  c #010101",
"X  c #090707",
"o  c #0C0B0B",
"O  c #131313",
"+  c #1B1B1B",
"@  c #242424",
"#  c #2B2B2B",
"$  c #333333",
"%  c #3B3B3B",
"&  c #601917",
"*  c #681917",
"=  c #423F3F",
"-  c #752E2D",
";  c #434343",
":  c #484747",
">  c #4B4B4B",
",  c #545454",
"<  c #585757",
"1  c #5C5C5C",
"2  c #646464",
"3  c #6C6C6C",
"4  c #747474",
"5  c #787777",
"6  c #7C7C7C",
"7  c #8E0000",
"8  c #801A17",
"9  c #A00000",
"0  c #872E2C",
"q  c #863634",
"w  c #813C3B",
"e  c #C20400",
"r  c #CA0000",
"t  c #C00F00",
"y  c #F42D24",
"u  c #F63B35",
"i  c #907D7D",
"p  c #D47776",
"a  c #DF7675",
"s  c #7C8F8F",
"d  c #838383",
"f  c #848A8A",
"g  c gray54",
"h  c #8C9D9D",
"j  c #949494",
"k  c #989696",
"l  c #9C9C9C",
"z  c #B58282",
"x  c #A89595",
"c  c #B39090",
"v  c #B09A99",
"b  c #8FA5A5",
"n  c #96A5A5",
"m  c #99A0A0",
"M  c #9FAEAF",
"N  c #A3A4A4",
"B  c #A0ABAB",
"V  c #ACACAC",
"C  c #B5A2A2",
"Z  c #ADB3B3",
"A  c #B3B3B3",
"S  c #B5BBBB",
"D  c #BBBCBC",
"F  c #D08584",
"G  c #D79796",
"H  c #EF9594",
"J  c #ED9C9A",
"K  c #F39D9C",
"L  c #ECAEAD",
"P  c #B7C4C4",
"I  c #BBC3C3",
"U  c #B7CDCD",
"Y  c #BFD6D6",
"T  c #C3C3C3",
"R  c #C8C7C7",
"E  c #C2CECE",
"W  c #CCCCCC",
"Q  c #D0CFCF",
"!  c #C6CFD0",
"~  c #C7D4D4",
"^  c #CCD1D1",
"/  c #CBDDDD",
"(  c #D3D3D3",
")  c #D4DCDC",
"_  c #DBDBDB",
"`  c #E7C5C4",
"'  c #E4CFCE",
"]  c #E0DFDF",
"[  c #C6E2E2",
"{  c #CDE3E3",
"}  c #CEE7E8",
"|  c #CDEAEA",
" . c #DDE3E3",
".. c #D6E7E8",
"X. c #DAE7E8",
"o. c #D2ECEC",
"O. c #DCECEC",
"+. c #D5F0F1",
"@. c #DFF2F2",
"#. c #D6FBFB",
"$. c #DEFDFD",
"%. c #E3E3E3",
"&. c #E5EBEB",
"*. c #ECECEC",
"=. c #F0EEEE",
"-. c #E2F6F7",
";. c #EAF0F0",
":. c #E6FDFD",
">. c #E8FCFC",
",. c #E8F9F9",
"<. c gray94",
"1. c #F0F1F1",
"2. c gray96",
"3. c #F6F6F6",
"4. c #F3FAFA",
"5. c #F9F9F9",
"6. c #FAF9F9",
"7. c #F8FAFA",
"8. c #FBFBFB",
"9. c #F9FDFD",
"0. c #FBFCFC",
"q. c #F8FFFF",
"w. c #FBFEFE",
"e. c gray99",
"r. c #FDFDFD",
"t. c #FEFDFD",
"y. c #FDFFFF",
"u. c #FFFEFE",
"i. c white",
"p. c white",
/* pixels */
"                                                                                                    ",
"                                                                                                    ",
"                                                                                                    ",
"                                                                                                    ",
"                                          . . . . . . . .                                           ",
"                                          X > 2 1 > > ; O                                           ",
"                                      . X 6 ( %._ R R D 6 + .                                       ",
"                                      X 6 &.i.i.i.i.i.i.%.d X                                       ",
"                                  . X 6 &.i.i.i.&.&.&.1.3._ 4 . .                                   ",
"                                  X d &.i.i.&._ ( R ( _ 1.i.D # .                                   ",
"                              . X d &.i.i.&.( R R R R ( &.1.( 2 . . .                               ",
"                              . , Q i.i.=.( R R R ( Q ( _ %._ V = . .                               ",
"                              . 2 _ i.i.&.~ ! ~ ( ( ( ) )  .&.%.g O .                               ",
"                              . , ( i.i.@.| { / ( ( { | +.,.i.i.A % .                               ",
"                              . ; D i.;.) )  .) ) ) ) ) )  .4.i.D % .                               ",
"                              . % Z ..S z a K ' ....` H p c ~ ,.I : .                               ",
"                              . > I [ f 8 r u L #.#.J y e 0 n } D > .                               ",
"                              . < ) :.m * 7 t G $.$.F e 9 q M Y j # .                               ",
"                              . > R i. .i & - C ,.-.v w w x E B > . .                               ",
"                              . O 5 ] i.X.b s S &.&.P h n I A 1 . . .                               ",
"                                  X 4 _ i.O.Y ) &.1.O./ U n , X .                                   ",
"                                  . X 3 S ~ _ &.i.i.i. .N > . . .                                   ",
"                                  . . . @ , k ( i.i.( j = . . . .                                   ",
"                                  . . . . . @ 6 D A 4 + . . . . .                                   ",
"                              . X # @ . . . . ; 4 4 ; . . . . # # . .                               ",
"                              . % 4 3 + . % 3 d j l j 4 # . @ 4 4 # .                               ",
"                              . , A N # O 6 ( _ R _ %.R 2 . % V D , .                               ",
"                              . 2 ( D % X 6 Q Q A V A l ; . % R _ 3 .                               ",
"                              . 3 _ R % . > l l 2 % # @ . . > R ( 1 .                               ",
"                              . 4 %.R ; . 2 R V > . . @ ; > 6 A j % .                               ",
"                              X 3 R D % + g &._ 2 . O l %._ D g % . .                               ",
"                              . ; d 4 + . 2 A l % . % ( i.i._ 1 . . .                               ",
"                                  @ + . . @ > % . . ; R i.i.R % .                                   ",
"                                  . . . O > 3 3 1 1 d D ( A 3 X .                                   ",
"                                      . % j R ( ( R D j 1 % X                                       ",
"                                      . @ 6 A D D D j > . . .                                       ",
"                                      . . @ % % % ; # . . . .                                       ",
"                                      . O % O . . . . . . . .                                       ",
"                                      . ; l d @ . O @ . . . .                                       ",
"                                      . , _ &.j , , > O . . .                                       ",
"                                      . > _ i.&.D 6 % . .                                           ",
"                                      . ; ( i.i.%.4 X . .                                           ",
"                                      . % R i.i.R > .                                               ",
"                                      . + 4 D D 4 O .                                               ",
"                                          O % % O . .                                               ",
"                                          . . . . . .                                               ",
"                                                                                                    ",
"                                                                                                    ",
"                                                                                                    ",
"                                                                                                    "
};
