/* XPM */
static char *Enemy3[] = {
/* columns rows colors chars-per-pixel */
"50 50 126 2 ",
"   c None",
".  c #010101",
"X  c #080606",
"o  c #0C0C0C",
"O  c #141414",
"+  c #1B1B1B",
"@  c #242424",
"#  c #2B2C2C",
"$  c #333333",
"%  c #3B3B3B",
"&  c #601614",
"*  c #681614",
"=  c #403E3E",
"-  c #762C2A",
";  c #7F3C3B",
":  c #434343",
">  c #4B4B4B",
",  c #545454",
"<  c #585757",
"1  c #5C5C5C",
"2  c #636363",
"3  c #6A6A6A",
"4  c #757575",
"5  c #787777",
"6  c #7D7D7D",
"7  c #8E0000",
"8  c #9E0000",
"9  c #801C18",
"0  c #88312F",
"q  c #833533",
"w  c #C40200",
"e  c #CC0100",
"r  c #C20E00",
"t  c #F43129",
"y  c #F63C36",
"u  c #907979",
"i  c #D47877",
"p  c #DF7978",
"a  c #7C8D8D",
"s  c #838383",
"d  c #838989",
"f  c #8B8B8B",
"g  c #8C9C9C",
"h  c #929393",
"j  c #9C9C9C",
"k  c #B58585",
"l  c #AC9797",
"z  c #B39191",
"x  c #93A4A4",
"c  c #9AA4A4",
"v  c #97A9A9",
"b  c #9FAFB0",
"n  c #A4A4A4",
"m  c #A4ABAB",
"M  c #ABABAB",
"N  c #B5A2A2",
"B  c #ADB3B3",
"V  c #B4B4B4",
"C  c #B5BDBD",
"Z  c #BBBBBB",
"A  c #D28382",
"S  c #D79796",
"D  c #EF9796",
"F  c #ED9D9C",
"G  c #F29D9C",
"H  c #EBADAC",
"J  c #B6C1C1",
"K  c #BEC1C1",
"L  c #BACCCC",
"P  c #BED6D6",
"I  c #C4C4C4",
"U  c #C9C7C7",
"Y  c #C4CFCF",
"T  c #CCCCCC",
"R  c #C7D4D4",
"E  c #CDD2D2",
"W  c #CCDEDE",
"Q  c #D3D4D4",
"!  c #D3DCDC",
"~  c #DBDBDB",
"^  c #E7C6C6",
"/  c #E2CECD",
"(  c #C4E0E0",
")  c #CBE7E7",
"_  c #CDEBEB",
"`  c #D7E4E4",
"'  c #DBE2E3",
"]  c #DEE7E8",
"[  c #D3EDED",
"{  c #DEEAEA",
"}  c #D4F1F1",
"|  c #D6FCFC",
" . c #DEFEFE",
".. c #E2E2E2",
"X. c #E8E7E7",
"o. c #E6ECEC",
"O. c #ECECEC",
"+. c #E2F6F7",
"@. c #E1F5F6",
"#. c #EFF0F0",
"$. c #EEF5F5",
"%. c #E4FCFC",
"&. c #E7FCFD",
"*. c #E9F8F8",
"=. c #E8F9F9",
"-. c gray94",
";. c #F1F1F1",
":. c #F4F4F4",
">. c gray96",
",. c #F6F5F5",
"<. c gray97",
"1. c #F4F4F4",
"2. c #F4FAFA",
"3. c #FAF9F9",
"4. c gray98",
"5. c #FBFBFB",
"6. c #F8FCFC",
"7. c #F8FFFF",
"8. c #FAFFFF",
"9. c gray99",
"0. c #FCFFFF",
"q. c #FDFFFF",
"w. c #FEFEFE",
"e. c #FFFEFE",
"r. c white",
"t. c #FFFFFF",
/* pixels */
"                                                                                                    ",
"                                                                                                    ",
"                                          . . . . . . . .                                           ",
"                                          o , 3 1 , > : O                                           ",
"                                      . o 6 Q ..~ U U Z 6 + .                                       ",
"                                      o s O.r.r.r.r.r.r...6 o                                       ",
"                                  . o 6 O.r.r.r.O.O.O.:.:.~ 3 . .                                   ",
"                                  o 5 ~ r.r.:...Q Q Q ~ :.r.Z # .                                   ",
"                              . O s ..:.O.X.~ U U U U Q O.:.Q 2 . . .                               ",
"                              . , Q r.:.Q U U U U U U Q ~ ..~ M % . .                               ",
"                              . 2 ..r.:.! Y E E Q Q Q ! ! ' O...f O .                               ",
"                              . , Q r.r.+._ ( W Q Q ( _ } =.r.r.V $ .                               ",
"                              . : K r.$.' ! ' ! ! ! ! ` ! ] 2.r.Z % .                               ",
"                              . = B ` Z k p G / [ [ ^ D i z R =.K : .                               ",
"                              . > J ( d 9 e y H | | F t w 0 v ( C > .                               ",
"                              . 1 ! %.j * 7 r S  . .A w 8 q b P h # .                               ",
"                              . > U r...u & - N %.+.l q ; l Y m > . .                               ",
"                              . O 6 ..r.' v a C o.o.J g v L V < . . .                               ",
"                                  O 5 ~ r.[ P ! O.$.{ W L c , . .                                   ",
"                                  . O 5 Z E ' $.r.r.r.' m > . . .                                   ",
"                                  . . o $ 2 j Q r.r.Q j > . . . .                                   ",
"                                  . . . . . # 6 Z Z 5 @ . . . . .                                   ",
"                              . o # @ . . . . : 5 5 % . . . . # # . .                               ",
"                              . $ 5 3 + . $ 3 f j j h 3 # . + 5 5 # .                               ",
"                              . , Z n $ O s Q ~ U Q ..U 3 o % M V > .                               ",
"                              . 3 ~ U % O 6 U V f h M j , . > U Q 1 .                               ",
"                              . 2 Q U $ . , 6 , + + % $ . . > Q Q 1 .                               ",
"                              . 1 U Z $ . 2 j 6 > > 1 > O . : U U , .                               ",
"                              . 2 U Z $ O s Q U M V U V , . % U U , .                               ",
"                              . 2 ~ U % . , n n h j Z Z 2 . : U Q 1 .                               ",
"                              . 3 ~ U : . o $ $ + # 2 5 : . : U U 1 .                               ",
"                              . , M j $ . $ 2 2 > , 6 h 1 o $ j M > .                               ",
"                              . # 1 > o + s U Q U U ~ Q s + o , 2 # .                               ",
"                              . . o . . O 3 V Z V Z U M , . . . O . .                               ",
"                                      . . + % % % % % # o . .                                       ",
"                                      $ , > @ . . . . O > , $                                       ",
"                                    @ j ~ U f $ . . + 6 U ~ h +                                     ",
"                                  . % Q r.r.U , . . 1 Q r.r.U $ .                                   ",
"                                  . $ U r.r.Z % . . 5 ~ r.r.Z # .                                   ",
"                                  . o f O.r.V $ . . 3 Q r...6 o .                                   ",
"                                  . . : V :.Q 2 . . , U :.M % . .                                   ",
"                                  . . @ j :.:.h O . > U :.h + . .                                   ",
"                                  . . @ f O.O.h O . : U ..f @ . .                                   ",
"                                  . . + 2 j j 1 o . # s j 2 O . .                                   ",
"                                      . O # # O . . . @ $ + .                                       ",
"                                      . . . . . . . . . . . .                                       ",
"                                                                                                    ",
"                                                                                                    ",
"                                                                                                    ",
"                                                                                                    "
};
