/* XPM */
static char *Enemy2[] = {
/* columns rows colors chars-per-pixel */
"50 50 125 2 ",
"   c None",
".  c #000000",
"X  c #080606",
"o  c #0D0D0D",
"O  c #141414",
"+  c #1A1A1A",
"@  c #242424",
"#  c #2B2B2B",
"$  c #333333",
"%  c #3B3B3B",
"&  c #601614",
"*  c #681614",
"=  c #403E3E",
"-  c #762C2A",
";  c #7F3C3B",
":  c #434343",
">  c #4B4B4B",
",  c #535353",
"<  c #585656",
"1  c #5B5A5A",
"2  c gray39",
"3  c #6C6C6C",
"4  c #747474",
"5  c #787777",
"6  c #7C7C7C",
"7  c #8E0000",
"8  c #9E0000",
"9  c #801C18",
"0  c #88312F",
"q  c #833533",
"w  c #C40200",
"e  c #CC0100",
"r  c #C20E00",
"t  c #F43129",
"y  c #F63C36",
"u  c #907979",
"i  c #D47877",
"p  c #DF7978",
"a  c #7C8D8D",
"s  c #828282",
"d  c #838989",
"f  c #8B8B8B",
"g  c #8C9C9C",
"h  c #929393",
"j  c #9B9B9B",
"k  c #B58585",
"l  c #AC9797",
"z  c #B39191",
"x  c #93A4A4",
"c  c #9AA4A4",
"v  c #97A9A9",
"b  c #9FAFB0",
"n  c #A2A2A2",
"m  c #A4ABAB",
"M  c #ABABAB",
"N  c #B5A2A2",
"B  c #ADB3B3",
"V  c #B2B3B3",
"C  c #B5BDBD",
"Z  c #BBBBBB",
"A  c #D28382",
"S  c #D79796",
"D  c #EF9796",
"F  c #ED9D9C",
"G  c #F29D9C",
"H  c #EBADAC",
"J  c #B6C1C1",
"K  c #BEC1C1",
"L  c #BACCCC",
"P  c #BED6D6",
"I  c #C4C4C4",
"U  c #C9C7C7",
"Y  c #C3CECE",
"T  c #CCCCCC",
"R  c #C4CFD0",
"E  c #C7D4D4",
"W  c #CDD2D2",
"Q  c #CCDEDE",
"!  c #D3D3D3",
"~  c #D3DCDC",
"^  c #DBDBDB",
"/  c #E7C6C6",
"(  c #E2CECD",
")  c #C4E0E0",
"_  c #CBE7E7",
"`  c #CDEBEB",
"'  c #D7E4E4",
"]  c #DBE2E3",
"[  c #DEE7E8",
"{  c #D3EDED",
"}  c #DEEAEA",
"|  c #D4F1F1",
" . c #D6FCFC",
".. c #DEFEFE",
"X. c #E2E2E2",
"o. c #E8E7E7",
"O. c #E6ECEC",
"+. c #ECECEC",
"@. c #E2F6F7",
"#. c #EFF0F0",
"$. c #EEF5F5",
"%. c #E4FCFC",
"&. c #E7FCFD",
"*. c #E9F8F8",
"=. c #E8F9F9",
"-. c gray94",
";. c #F1F1F1",
":. c #F4F4F4",
">. c gray96",
",. c #F6F5F5",
"<. c gray97",
"1. c #F4FAFA",
"2. c #FAF9F9",
"3. c gray98",
"4. c #FBFBFB",
"5. c #F8FCFC",
"6. c #F8FFFF",
"7. c #FAFFFF",
"8. c gray99",
"9. c #FCFFFF",
"0. c #FDFFFF",
"q. c #FEFEFE",
"w. c #FFFEFE",
"e. c white",
"r. c #FFFFFF",
/* pixels */
"                                                                                                    ",
"                                                                                                    ",
"                                          . . . . . . . .                                           ",
"                                          o , 3 1 , > : O                                           ",
"                                      . o 6 ! X.^ U U Z 6 + .                                       ",
"                                      o s +.e.e.e.e.e.e.X.6 o                                       ",
"                                  . o 6 +.e.e.e.+.+.+.:.:.^ 3 . .                                   ",
"                                  o 5 ^ e.e.:.X.! ! ! ^ :.e.Z # .                                   ",
"                              . O s X.:.+.o.^ U U U U ! +.:.! 2 . . .                               ",
"                              . , ! e.:.! U U U U U U ! ^ X.^ M % . .                               ",
"                              . 2 X.e.:.~ Y W W ! ! ! ~ ~ ] +.X.f O .                               ",
"                              . , ! e.e.@.` ) Q ! ! ) ` | =.e.e.V $ .                               ",
"                              . : K e.$.] ~ ] ~ ~ ~ ~ ' ~ [ 1.e.Z % .                               ",
"                              . = B ' Z k p G ( { { / D i z E =.K : .                               ",
"                              . > J ) d 9 e y H  . .F t w 0 v ) C > .                               ",
"                              . 1 ~ %.j * 7 r S ....A w 8 q b P h # .                               ",
"                              . > U e.X.u & - N %.@.l q ; l R m > . .                               ",
"                              . O 6 X.e.] v a C O.O.J g v L V < . . .                               ",
"                                  O 5 ^ e.{ P ~ +.$.} Q L c , . .                                   ",
"                                  . O 5 Z W ] $.e.e.e.] m > . . .                                   ",
"                                  . . o $ 2 j ! e.e.! j > . . . .                                   ",
"                                  . . . . . # 6 Z Z 5 @ . . . . .                                   ",
"                              . o # @ . . . . : 5 5 % . . . . # # . .                               ",
"                              . $ 5 3 + . $ 3 f j j h 3 # . + 5 5 # .                               ",
"                              . 1 V j @ O f X.X.U ! X.U 3 o : V Z , .                               ",
"                              . 3 ! V @ o f ^ Z h h M n > . , ^ X.3 .                               ",
"                              . 2 ! Z $ . : 5 , # @ % $ . . , ! ^ 2 .                               ",
"                              . , U ^ s O . @ > 1 1 2 , + . % n M > .                               ",
"                              . > U e.^ 3 . o 3 Z U U Z 3 o o , 2 # .                               ",
"                              . > ! e.e.M O . : h M Z Z s @ . o + o .                               ",
"                              . > U e.e.Z # . . @ % 2 s 2 + . . .                                   ",
"                              . @ 6 V Z j 6 2 > : , 6 j 5 @ . . .                                   ",
"                                  + $ $ 2 M ! U Z U ^ ^ j $ .                                       ",
"                                  . . . + 5 Z U Z Z U V 5 + .                                       ",
"                                      . . @ : : $ % % $ O . .                                       ",
"                                      . O > > O . . . o o . .                                       ",
"                                      . > M M , . . @ 6 6 # .                                       ",
"                                      . , U U 2 . + f X.+.j #                                       ",
"                                          5 2 @ + 6 X.e.e.X.f O .                                   ",
"                                          O . . : U e.e.e.^ f + .                                   ",
"                                          . . o 5 ^ e.e.X.j > . .                                   ",
"                                          . . $ j +.e.e.^ 6 + . .                                   ",
"                                          . . $ f X.e.e.U 3 + . .                                   ",
"                                          . . O , h Z Z f > O . .                                   ",
"                                              . o @ $ $ @ o .                                       ",
"                                              . . . . . . . .                                       ",
"                                                                                                    ",
"                                                                                                    ",
"                                                                                                    ",
"                                                                                                    "
};
