/* XPM */
static char *_026ab2f87fe4beeca3e6d77b15ed415GP9Y7HYfi9OtoffH[] = {
/* columns rows colors chars-per-pixel */
"30 30 137 2 ",
"   c None",
".  c #070D14",
"X  c #090E16",
"o  c #090F18",
"O  c #06111B",
"+  c #0A121B",
"@  c #0D1721",
"#  c #121E28",
"$  c #15212D",
"%  c #19242F",
"&  c #1D2935",
"*  c #1D2C3A",
"=  c #23303D",
"-  c #263341",
";  c #213548",
":  c #2B3B4B",
">  c #2F4153",
",  c #2D475F",
"<  c #344659",
"1  c #3A4A5D",
"2  c #3B5C7C",
"3  c #3C5F81",
"4  c #3C6184",
"5  c #35668B",
"6  c #34688F",
"7  c #326C96",
"8  c #426283",
"9  c #456689",
"0  c #466A8E",
"q  c #4A6B8D",
"w  c #4B6E91",
"e  c #4D7193",
"r  c #4D7398",
"t  c #557596",
"y  c #51779E",
"u  c #52789F",
"i  c #5A7B9B",
"p  c #5A7EA3",
"a  c #5E83A6",
"s  c #5B83A8",
"d  c #6584A4",
"f  c #6086AB",
"g  c #6A8AAA",
"h  c #6289B0",
"j  c #6A92BA",
"k  c #7693B2",
"l  c #739CC6",
"z  c #7BA6D2",
"x  c #7FABD7",
"c  c #7FADD9",
"v  c #809FBD",
"b  c #81A0BF",
"n  c #93A4B6",
"m  c #98A9B7",
"M  c #82A5C7",
"N  c #87A7CA",
"B  c #89A8C8",
"V  c #82ACD7",
"C  c #81AEDA",
"Z  c #83B0DD",
"A  c #92B2D4",
"S  c #9FBCD7",
"D  c #90B4D9",
"F  c #86B3E1",
"G  c #88B6E4",
"H  c #8AB8E7",
"J  c #8EBBE9",
"K  c #96BCE4",
"L  c #94BEEA",
"P  c #B9CAD9",
"I  c #98C1EA",
"U  c #98CAFC",
"Y  c #A0C3E7",
"T  c #A5C8ED",
"R  c #ADCCEA",
"E  c #BBD1E6",
"W  c #A7CCF1",
"Q  c #AACEF4",
"!  c #A3CDF9",
"~  c #AED1F6",
"^  c #BBD8F5",
"/  c #B4D7FA",
"(  c #B5D9FF",
")  c #BEDEFF",
"_  c #C2D5E5",
"`  c #C0D7ED",
"'  c #CDDCEC",
"]  c #C1DFFD",
"[  c #DCE2E7",
"{  c #D4E1EC",
"}  c #C5E2FD",
"|  c #CBE4FD",
" . c #DEEAF7",
".. c #D0E7FF",
"X. c #D5E9FD",
"o. c #DBEDFF",
"O. c #DFF0FF",
"+. c #E3E9EF",
"@. c #E4ECF4",
"#. c #E0EEFC",
"$. c #EBF0F5",
"%. c #E3F2FF",
"&. c #E8F1F9",
"*. c #E9F1FA",
"=. c #EFF5FA",
"-. c #EEF5FB",
";. c #EAF4FC",
":. c #EBF4FD",
">. c #E8F4FF",
",. c #E9F4FF",
"<. c #E8F5FF",
"1. c #ECF5FE",
"2. c #ECF6FF",
"3. c #EDF6FF",
"4. c #EFF7FE",
"5. c #EEF6FF",
"6. c #EEF7FF",
"7. c AliceBlue",
"8. c #F1F8FF",
"9. c #F1F9FF",
"0. c #F2F9FF",
"q. c #F4FAFF",
"w. c #F5FAFF",
"e. c #F6FBFF",
"r. c #F9FBFE",
"t. c #F9FCFF",
"y. c #F8FDFF",
"u. c #F9FDFF",
"i. c #FAFDFF",
"p. c #FBFDFF",
"a. c #FAFEFF",
"s. c #FBFEFF",
"d. c #FCFEFF",
"f. c #FDFEFF",
"g. c #FEFEFF",
"h. c #FEFFFF",
"j. c white",
/* pixels */
"                                                            ",
"                                                            ",
"                        q g B b i 8                         ",
"                    4 D @.i.j.j.1.' g 2                     ",
"                  q _ j.j.j.j.j.j.j.i.N 3                   ",
"                e { j.j.j.j.j.j.j.j.j.r.A 2                 ",
"              8 _ j.j.j.j.j.j.j.j.j.j.j.j.M 2               ",
"            2 K i.j.j.j.j.j.j.j.j.j.j.j.j.=.d 2             ",
"          q D / w.j.j.j.j.j.j.j.j.j.j.j.j.j.} 8             ",
"        4 E i.j.w.j.j.j.j.j.j.j.j.j.j.j.j.j.j.S 2           ",
"        4 i.j.j.j.j.j.j.j.j.j.j.j.j.j.j.j.j.j.-.p 2         ",
"        w o.j.j.j.j.j.j.j.j.j.j.j.j.j.j.j.j.j.o.Y 2         ",
"      2 l U } w.j.j.j.j.j.o.o.%.i.j.j.j.j.j.j.} ^ a         ",
"    4 a C ] O.o.j.j.7.X.X.) } <.j.j.j.j.j.j.j.| >.E 8       ",
"    w J K H } j.j.j.7.<.o.O.o.i.j.j.j.w.<.1.O.%.j.7.a 4     ",
"  0 G >.7.X.#.j.j.j.j.j.j.j.j.j.j.j.j.o.} } ( X.7.j.k 2     ",
"7 w T j.j.j.j.j.$.[ +.$.*.1.<.1.1.:.*.@.{ ' ( ) <.j.R 4     ",
"6 8 c i.j.j.j.+.1 $ & = : > < 1 1 : : = % * P 1.7.j./ p 3   ",
"5 0 Y j.j.j.j.A X * X X X X . . . X X . + . m w.] j.) l 4   ",
"5 p L i.j.j.j.V X + X X X X X X o X + + + . m j.j.j.#.x 9   ",
"5 s F O.j.j.j.V . . X X X X X X X X + + X o m j.j.j.| C w   ",
"5 s F Q i.j.j.V . X X X X X X X X X X X X . n j.j.j.>.C r   ",
"5 y F F X.j.j.V . . + + X X X X . X X X + . k j.j.j.o.C e   ",
"7 9 V Z I <.j.l . X + X X X X X # + X X X o i >.j.i.W z 8   ",
"  4 h G F G ! i . X X X X X X X X X X X X . i J ] ~ F a     ",
"    4 a C G G t . X X X X X X X X X X X + . i G G x p       ",
"      4 0 j c t . X X o o X X X X X . + X . t z f 4         ",
"          4 8 , . X + + @ X X X X X o o X . ; 4             ",
"                O o X + o X X X X X X o + O                 ",
"                                                            "
};
