/* XPM */
static char *floor[] = {
/* columns rows colors chars-per-pixel */
"50 50 144 2 ",
"   c #050504",
".  c #080606",
"X  c #070805",
"o  c #090907",
"O  c #0C0C09",
"+  c #100F0E",
"@  c #0F100A",
"#  c #12120E",
"$  c #151411",
"%  c #181713",
"&  c #161811",
"*  c #1B1A15",
"=  c #1E1D19",
"-  c #211E1A",
";  c #1D2017",
":  c #1F2119",
">  c #24231D",
",  c #28261F",
"<  c #26291E",
"1  c #28281F",
"2  c #282A1F",
"3  c #28281F",
"4  c #262720",
"5  c #262720",
"6  c #282620",
"7  c #292620",
"8  c #292720",
"9  c #2A2620",
"0  c #2A2720",
"q  c #292720",
"w  c #272820",
"e  c #262920",
"r  c #272920",
"t  c #272A20",
"y  c #262920",
"u  c #282820",
"i  c #292820",
"p  c #292920",
"a  c #282821",
"s  c #2A2820",
"d  c #2A2920",
"f  c #2A2821",
"g  c #2A2921",
"h  c #2B2921",
"j  c #282A20",
"k  c #292B20",
"l  c #2A2A21",
"z  c #2B2A21",
"x  c #2A2922",
"c  c #2B2922",
"v  c #2B2A22",
"b  c #2A2B22",
"n  c #2B2B22",
"m  c #2C2A21",
"M  c #2C2A22",
"N  c #2C2B22",
"B  c #2D2B22",
"V  c #2D2B23",
"C  c #2E2B23",
"Z  c #2A2C21",
"A  c #2B2C21",
"S  c #2C2C22",
"D  c #2D2D22",
"F  c #2D2C23",
"G  c #2E2D22",
"H  c #2F2D23",
"J  c #2C2E22",
"K  c #2D2E23",
"L  c #2D2F23",
"P  c #2F2E23",
"I  c #2E2D24",
"U  c #2F2C25",
"Y  c #2E2E24",
"T  c #2F2E24",
"R  c #2E2F24",
"E  c #2F2F24",
"W  c #2F2E25",
"Q  c #2F2F25",
"!  c #2C2B22",
"~  c #302D25",
"^  c #302F24",
"/  c #302E25",
"(  c #302F25",
")  c #302F25",
"_  c #2C3022",
"`  c #2D3023",
"'  c #2E3023",
"]  c #2E3223",
"[  c #2E3024",
"{  c #2F3024",
"}  c #2F3224",
"|  c #2F3225",
" . c #2F3325",
".. c #2E3124",
"X. c #303025",
"o. c #303125",
"O. c #303325",
"+. c #303026",
"@. c #313126",
"#. c #303127",
"$. c #313226",
"%. c #323226",
"&. c #323327",
"*. c #313426",
"=. c #323527",
"-. c #333527",
";. c #333627",
":. c #313226",
">. c #313228",
",. c #333228",
"<. c #333328",
"1. c #343328",
"2. c #353329",
"3. c #333428",
"4. c #333628",
"5. c #343429",
"6. c #343628",
"7. c #343728",
"8. c #36342A",
"9. c #36342C",
"0. c #343429",
"q. c #38352D",
"w. c #39362D",
"e. c #39382D",
"r. c #39392D",
"t. c #3B3B2E",
"y. c #3C392F",
"u. c #3D3D2F",
"i. c #3A3A2E",
"p. c #3A3930",
"a. c #3B3930",
"s. c #3C3D30",
"d. c #3E3E31",
"f. c #3E3F31",
"g. c #3C3B31",
"h. c #403F32",
"j. c #4B483B",
"k. c #4D4A3E",
"l. c #4C493D",
"z. c #4F4B40",
"x. c #4F4B40",
"c. c #524F41",
"v. c #534F42",
"b. c #524F41",
/* pixels */
"v.u. .=.=.=.=. .q.s. .% q.v.=.=.6. .u.u.r R 2 R = z.s. .=.=.=.=.R q.s. .% q.v.=.=.6. .u.u.r R 2 R % ",
"s.> > > > , > R R - , = =.6.> > > - > R > > , , > u.> > > > , > R R > , = =.6.> > > - > R > > , 7 = ",
" .> R R , > > 7 > R R - 2 R R R > > , > R R R > = R > R R , > > 7 > R R - > R R R > > 7 > R R R , * ",
"6.= > R = = , , = > R = > R = R 7 7 > > , = R , =  .= > R = = , , = > R = > R = R 7 , > > , = R 7 % ",
"=.> , > > > - > R > > = r =.> , > > = r R > 7 > =  .> , > > > - > R > > = r =.> , > > = 4 R > 7 , * ",
"=., > R  .% > R R 4 > % ; =., , R > > R > 7 > > # R 7 > R  .% > R R 4 > % ; =., , R > > R > 7 > > O ",
"6.> > R > R  .> > R , % ; 6.- > R > R > , > R > %  ., > , > R  .> - R , % ; 6.- >  .> R > , > R 2 + ",
"R , 7 > > R , > > > > * ; R > R R - > , > > =.7 O 2 , 7 - > R , > > > > * ; R > R R > > , > ; ^ R O ",
"2 > > > R R - > R > R * > R > > , R , 7 > R > R O > 7 > > R R - > R > R * >  .> > , R , 7 > R > R o ",
"2 > R R > R r = > R ^ % O R R R > 7 R > R R R 7 O > , R R > R r = > R ^ % O R R R > 7 R > R R R R o ",
"- > > R , , ^ R > R 6.% # ^ = R 7 > > =., > R R o * > > R R 7 ^ R > 4 6.% # ^ - R 7 > > =., > R ^ O ",
"% = = = = = % = % # * O   * * = = * * % % % % *   # = = = = = % = % # * O X = = = = * * % % % % *   ",
"q.=.2 > > > * * * * o   > s.R > > > = R * & o o # 6.=.2 > > > * * & & o   > s.R > > > = 7 * & o o O ",
"v.6.R =.=.^ R =.6.6.R * s.j.R R =.> 6.u.=.=.7 R > l.6.R ^ =.^ R =.6.=.R * s.l.R R =.> 6.q.=.=.7 R = ",
"=.> R , > > R R > R R = R R > R - > 7 > > 7 R 7 > =.> R , > > R R > R R - R R > R - > 7 > > R R 7 = ",
"=.- R R > R R , - R R - 2 R > R > , 7 , > > R > % R - R R > R R , - R R - 2 R > R > , 7 , > > R 7 O ",
"6.- > - R R > 7 > - 7 - 2  .= > , 7 - > R = > 7 %  .- > - 7 7 > 7 > - R - 2 R = > , 7 - > R = > R + ",
"R - , 2 = , > - > R R = > =., 7 > > R R , > , 7 # > > 2 2 = , > > > R R = >  ., 7 > > R R > > , R O ",
"6.R > R =.7 > - > R 7 * r =.> R - R =.> * > > 7 = 6.R > R =.R > - > R 7 * r  .> R - 7 =.> * > , R * ",
"s.> , , R > * ^ R > > % ; =., > ; R , > > 7 R = R h.> , , R > * ^ R > > % ; =., > ; R , > > 7 R = > ",
" ., > 7 > * > R > , , * ; 6.> = R 7 - > R > - > > R , > 7 > * > R > , , % ; 6.> = R 7 - > R > - > ; ",
"2 7 R 7 > > R > 7 R R * * R 7 R > , > > R =.> R O > 7 R 7 > > R > 7 R R * * R 7 R > , > > R =.> R O ",
"R - R R > > > 7 > R R * * R > R > - > 7 > > R 7 O > > R R > > > R > R R * * R > R 2 > > 7 > > R 7   ",
"* > - 7 R R > 7 > > ^ % O R = > R > = , , > 7 R o % > - 7 R r > 7 > > ^ % @ R = > R > = , , > 7 R . ",
"= > > * = % > 7 % # O   O > > > * > R > * # O O   * > > * = % > 7 % # O   O > > - * > R > * # O O   ",
"z.u. . . .R =.R 6.6.2 # 6.l.=. .=.R u.q.> 2 > > * j.u. . . .R =. .6.6.2 # 6.l.=. .=.R u.q.> > > > % ",
"s.> > > > 7 > R R > 7 = =.6.> > > - > R > > 7 7 > u.> > > > 7 > R R > 7 = =.6.> > > > > R > > 7 R = ",
" .> R R , > > 7 > R R = 2 R R R > > 7 > R R R > =  .> R R , > > 7 > R R - > R R R > > 7 > R R R , * ",
"6.= > R = = , , = > R = > R = R 7 7 > > > = R , = =.= > R = = , , = > R = > R = R 7 7 > > , = R R % ",
"=.> , > > > - > R > > = r =.> , > > = 4 R > 7 > =  .> , > > > - > R > > = r =.> , > > = r R > 7 , * ",
"=., > R  .% > R R 4 > % * =., , R > > R > 7 > > #  .7 > R  .% > R R 4 > % * =., , R > > R > 7 > > O ",
"6.> > R > R  .> - R , % ; 6.- >  .> R > , > R > %  ., > , > R  .> > R , % ; 6.- >  .> R > , > R , + ",
"R > 7 - > R , > > > > * ; R > R R - > , > > =.7 O > , 7 > > R , > > > > * ; R > R R - > , > > =.R O ",
"R > > > R R - > 7 > R * >  .> > , R , , > R > R O > 7 > > R R - > 7 > R * >  .> > , R , 7 > R > R . ",
"R > R R > R r = > R ^ % O R R R > 7 R > R R R 7 O > , R R > R r = > R ^ # O R R R > 7 R > R R R 7 o ",
"- > > R , 7 ^ R > 7 6.% # ^ - R 7 > 2 =., > R R o * > > R 7 7 ^ R > 7 6.% # ^ - R 7 > 2 =., > R ^ O ",
"% = = = = = % = # # * O X = = = = * * % % % % *   # = = = = = % = % # * O   = = = = * * % % % % *   ",
"q.=.> > > > * * * * o   > s.R > > > = R * & o o # 6.6.2 > > > * * * * O   > s.R > > > = R * % o o O ",
"v.6.R =.=.^ R =.=.=.R * s.l.R R =.> 6.q.=.=.7 R > l.6.R =.=.^ R =.6.6.R * s.j.R R =.> 6.q.=.=.7 R = ",
"=.> R , > > R R > R R - R R > R - > 7 > > 7 R 7 > =.> R , > > R R > R R = R R > R - > 4 > > 7 R 7 = ",
"=.- R R > R R , - R R - 2 R > R > , 7 , > > R , %  .- 2 R > R R , > R R - 2 R > R > , 7 , > > R 7 + ",
"6.- > - R R > R > - 7 - 2  .= > , 7 - > R = > 7 %  .- > - R R > R > - 7 - 2  .= > , 7 - > R = > R + ",
"R - , 2 = , > > > R R = > =., 7 > > R R , > , 7 # > > , 2 = , > > > R R = > =., 7 > > R R , > > R O ",
"6.R > R =.7 > - > R 7 * r =.> R - R =.> * > , R = +.R > R =.7 > - > R 7 * r =.> R - R =.> * > , R * ",
"s.> , , R > * ^ R > > % ; =., > = R , > > , R - R h.> , , 7 > * ^ R > > % = =., > ; R , > > 7 R - > ",
" ., > 7 > * > R > , , * ; 6.> = R 7 - > R > = > > R , > 7 > * > R > , > * ; 6.> = R 7 - > R > - > ; ",
"> 7 R 7 > > R > 7 R R * * R 7 R > , > > R  .> R O > 7 R 7 > > R > 7 R R * * R 7 R > , > > R =.> R O ",
"R - R R > > > 7 - R R * * R > R , = > 7 > > R 7 O 2 > R R > > > R > R R * * R > R 2 > > 7 > > R R . ",
"- > > R R R > 7 > > ^ % # ^ - , R > = R 7 > R R o * > - R R R > 7 > > ^ % @ ^ - , R > = R 7 > R R O ",
"* = = % * O - 7 # O O   O = = = % ; > - % O o o   * = = % % # - 7 # O O   O = = = % ; > - % O o o   "
};
