/* XPM */
static char *Fire_Warrior_IdleFireSword7[] = {
/* columns rows colors chars-per-pixel */
"50 50 20 1 ",
"  c None",
". c #1D0202",
"X c #1B1108",
"o c #16151E",
"O c #191A1A",
"+ c #3A0303",
"@ c #25180E",
"# c #2B1A0D",
"$ c #3F2613",
"% c #2C2C35",
"& c #353636",
"* c gray23",
"= c #660505",
"- c #4E5050",
"; c #68696A",
": c #F00018",
"> c #FF8000",
", c #EAFB00",
"< c #D4AD89",
"1 c #EEC39A",
/* pixels */
"                                                  ",
"                                                  ",
"                                                  ",
"                           --O                    ",
"                          --OOO                   ",
"                      --OO=OOOO                   ",
"                     --OOOO=OOOO                  ",
"                     O1OOOO=OOOO                  ",
"                     111OOO  OOO                  ",
"                     =1=+OO   OOO                 ",
"                     1<11OO     OO                ",
"                     1<11<O                       ",
"                     +11<<+++                     ",
"                    +++1<+++++                    ",
"                    ++++++++++                    ",
"                   =++++++++===                   ",
"                  ===++++=======                  ",
"                  o@=====@@%%%===                 ",
"                  o@@@@@@@%%%%%%%%                ",
"                  o@@@@@@@%%%%%%%%%               ",
"                  o@@@@@@@@%ooo%%%OO              ",
"                   @@$$@@@@o+++ooO***OO           ",
"                   @$$$$@@@++++++****OO           ",
"                  O@$$$$@@@++++++ ****O           ",
"                 OO@$$$$$@@+++++++ **OO           ",
"               XOOO@$$$$$@@@++++++  O##           ",
"              XXXOO@$$$$$$@@++++++  ####          ",
"              XXXO  ;;=+;;;;+++++++ OOOO          ",
"               XX   XX=+XXXXX++++++O:OOOO         ",
"                    ooo%%%%%%++++++O:::OO         ",
"                    ooo%%%%%%+++++++:::>:         ",
"                   ooooo%%%%%%++++++:>:::         ",
"                   ooooo%%%%%%++++++:>,:          ",
"                   oooooo%%%%%+++++:>>,:          ",
"                   ooooo.%%%%%%++++:>,:>          ",
"                   oooo...%%%%%++++>:::>          ",
"                   oooo  ..%%%%++++:::>           ",
"                   oooo    %%%%+++:>::>           ",
"                   XXXX    ####&+++:,::           ",
"                   XXXXX   #####   :,>++          ",
"                   XXXXX   #$$##  >>,>            ",
"                    XXXX    $$$$  >,>             ",
"                    XXXX    $$$$  >,>             ",
"                     XXX     $$$$:,>              ",
"                     XXX     $$$$,:               ",
"                     XXX     $$$$:                ",
"                    XXXX     ###$                 ",
"                   XXXXX    #####                 ",
"                   XXXXX    #####                 ",
"                                                  "
};
